<?xml version="1.0" encoding="UTF-8"?>
<svg version="1.1" xmlns="http://www.w3.org/2000/svg" width="512" height="512">
<path d="M0 0 C6.75771804 4.83457298 6.75771804 4.83457298 8.94569397 7.39564514 C11.07312936 9.22391949 12.21930086 9.18091316 14.99780273 9.17749023 C15.88559921 9.18437363 16.77339569 9.19125702 17.68809509 9.198349 C18.64438309 9.1921907 19.60067108 9.18603241 20.5859375 9.1796875 C22.60872566 9.19706855 24.63151208 9.21465295 26.65429688 9.23242188 C29.84516582 9.24250322 33.03592241 9.24608917 36.22680664 9.24438477 C39.30519263 9.24795019 42.38270636 9.2752764 45.4609375 9.3046875 C46.89233315 9.29241371 46.89233315 9.29241371 48.35264587 9.27989197 C54.97760179 9.35451478 54.97760179 9.35451478 58.16040039 11.71508789 C60.57952359 15.25803946 60.69400412 17.21995407 60.62020874 21.50193787 C60.60253952 22.7141098 60.5848703 23.92628174 60.56666565 25.17518616 C60.55480288 25.83198427 60.5429401 26.48878239 60.53071785 27.16548347 C60.46606454 30.76360168 60.41874238 34.36197205 60.36825562 37.96031189 C60.35697435 38.72905132 60.34569309 39.49779075 60.33406997 40.28982532 C60.19256044 50.15589277 60.14306702 60.02264218 60.0921638 69.8895272 C60.04240799 79.4877311 59.96320161 89.083182 59.78417969 98.67993164 C59.64209589 106.30521419 59.5687978 113.92775692 59.57379973 121.55440861 C59.57401761 125.58468418 59.54183853 129.60829511 59.42634201 133.63705254 C58.59353992 154.24864054 58.59353992 154.24864054 68.43212318 171.70618534 C71.69119678 174.73687345 75.04536538 177.53989359 78.65101051 180.14897251 C81.58898955 182.66385224 82.47067338 184.8136597 82.92578125 188.61328125 C83.00509493 194.8473364 83.02690146 199.01177461 78.58984375 203.80859375 C74.65717324 207.35758909 71.63415154 208.94523388 66.33984375 209.12109375 C65.6128125 209.15847656 64.88578125 209.19585937 64.13671875 209.234375 C58.07216097 208.22051488 54.61825363 205.13850733 51.1628418 200.3034668 C45.94738302 193.30570543 40.33541851 186.54401174 31.38580322 184.79058838 C20.40245372 183.27502776 9.16198773 183.97865212 -1.87261963 184.50396729 C-6.45049053 184.70073155 -11.03042025 184.78560235 -15.61132812 184.88085938 C-24.54960283 185.08275126 -33.47884283 185.40556995 -42.41015625 185.80859375 C-41.42015625 189.43859375 -40.43015625 193.06859375 -39.41015625 196.80859375 C-37.59515625 196.89109375 -35.78015625 196.97359375 -33.91015625 197.05859375 C-27.20199869 197.65838195 -22.2765232 198.67879702 -17.625 203.7578125 C-13.90858464 208.79210565 -12.11926117 213.51008283 -12.41015625 219.80859375 C-13.41015625 222.80859375 -13.41015625 222.80859375 -15.41015625 223.80859375 C-16.98940494 223.90537703 -18.57269858 223.93926962 -20.15490723 223.94230652 C-21.15605057 223.9465715 -22.15719391 223.95083649 -23.18867493 223.95523071 C-24.29108017 223.95477753 -25.39348541 223.95432434 -26.52929688 223.95385742 C-27.68705124 223.95721603 -28.8448056 223.96057465 -30.03764343 223.96403503 C-33.88057516 223.97356655 -37.72346343 223.97548915 -41.56640625 223.9765625 C-43.55490902 223.97896234 -45.5434118 223.98136371 -47.53191423 223.98402292 C-53.78576507 223.99216968 -60.0396015 223.9946069 -66.29345703 223.99389648 C-72.75207713 223.99329525 -79.21061383 224.00385554 -85.66921282 224.01964015 C-91.20894531 224.03269832 -96.74865049 224.03808113 -102.28839827 224.03744107 C-105.59947039 224.03718563 -108.9104514 224.04097485 -112.22151184 224.05061913 C-115.91141791 224.06036151 -119.60110642 224.05756394 -123.29101562 224.05151367 C-124.94462349 224.05994293 -124.94462349 224.05994293 -126.63163757 224.06854248 C-127.63278091 224.06434799 -128.63392426 224.0601535 -129.66540527 224.05583191 C-130.53851097 224.05637668 -131.41161667 224.05692144 -132.31118011 224.05748272 C-134.41015625 223.80859375 -134.41015625 223.80859375 -136.41015625 221.80859375 C-137.22041183 215.95791713 -136.88889575 210.70057117 -133.41015625 205.80859375 C-125.54040161 197.90604846 -125.54040161 197.90604846 -119.2734375 197.7109375 C-118.10167969 197.72253906 -116.92992187 197.73414063 -115.72265625 197.74609375 C-114.54316406 197.75511719 -113.36367187 197.76414062 -112.1484375 197.7734375 C-111.24480469 197.78503906 -110.34117187 197.79664063 -109.41015625 197.80859375 C-109.28640625 196.59171875 -109.16265625 195.37484375 -109.03515625 194.12109375 C-108.68953749 190.72250931 -107.76149323 187.94523364 -106.41015625 184.80859375 C-107.29537964 184.83215942 -107.29537964 184.83215942 -108.19848633 184.85620117 C-110.87311211 184.91857314 -113.54758489 184.95759032 -116.22265625 184.99609375 C-117.15142578 185.02123047 -118.08019531 185.04636719 -119.03710938 185.07226562 C-120.37612305 185.08676758 -120.37612305 185.08676758 -121.7421875 185.1015625 C-122.97545776 185.12512817 -122.97545776 185.12512817 -124.23364258 185.14916992 C-126.92498002 184.72803524 -127.81686407 183.98774566 -129.41015625 181.80859375 C-129.28515625 179.24609375 -129.28515625 179.24609375 -128.41015625 176.80859375 C-124.91616499 174.47926624 -123.52336387 174.55096486 -119.39277649 174.53012085 C-118.13494354 174.51895737 -116.8771106 174.50779388 -115.5811615 174.49629211 C-114.1847232 174.49392708 -112.78828457 174.49175144 -111.3918457 174.48974609 C-109.92343594 174.48044938 -108.45503147 174.47028109 -106.9866333 174.45930481 C-102.99728001 174.4319617 -99.00796211 174.41684268 -95.01853967 174.40387678 C-90.85046841 174.38826506 -86.68246964 174.36146863 -82.51445007 174.33584595 C-74.62035809 174.2890234 -66.72625252 174.25229615 -58.83209246 174.21917307 C-49.84545024 174.18097621 -40.85888075 174.13155969 -31.87229979 174.08118892 C-13.38497181 173.97781739 5.10240053 173.88857399 23.58984375 173.80859375 C22.21528546 172.30030381 20.82073875 170.81021318 19.41796875 169.328125 C18.64356445 168.49643799 17.86916016 167.66475098 17.07128906 166.80786133 C13.57112888 163.98782869 11.12744084 164.31510651 6.83203125 164.75 C4.58984375 164.80859375 4.58984375 164.80859375 1.46484375 162.93359375 C-0.41015625 160.80859375 -0.41015625 160.80859375 -0.41015625 158.80859375 C-1.73015625 158.14859375 -3.05015625 157.48859375 -4.41015625 156.80859375 C-4.41015625 156.14859375 -4.41015625 155.48859375 -4.41015625 154.80859375 C-4.93222656 155.03522705 -5.45429688 155.26186035 -5.9921875 155.49536133 C-32.00214292 166.66404074 -57.81403737 170.16427695 -84.69628906 159.48071289 C-93.13158704 155.90231721 -102.85052995 151.08462151 -108.9112854 144.0716095 C-113.09267129 139.53632824 -116.37557368 138.30027358 -122.52880859 137.95385742 C-125.35311816 137.90206264 -128.17184327 137.93544467 -130.99609375 137.9765625 C-132.5044585 137.97225007 -134.01281702 137.96457065 -135.52114868 137.95368958 C-139.46958355 137.93286484 -143.41676835 137.95174117 -147.3651123 137.98095703 C-153.70453143 138.02060838 -160.04407501 137.99745004 -166.38353348 137.97796059 C-168.59625706 137.97657802 -170.80843851 137.99097199 -173.02108765 138.00810242 C-174.37001492 138.01110801 -175.71894276 138.01387298 -177.06787109 138.01635742 C-178.83703384 138.02804207 -178.83703384 138.02804207 -180.64193726 138.03996277 C-183.41015625 137.80859375 -183.41015625 137.80859375 -185.41015625 135.80859375 C-185.66015625 133.30859375 -185.66015625 133.30859375 -185.41015625 130.80859375 C-182.75620095 128.15463845 -181.47490622 128.53707992 -177.76708984 128.48974609 C-176.58601654 128.4698764 -175.40494324 128.45000671 -174.18807983 128.42953491 C-172.90784943 128.4179837 -171.62761902 128.4064325 -170.30859375 128.39453125 C-169.00185699 128.3751651 -167.69512024 128.35579895 -166.3487854 128.33584595 C-162.87348516 128.28445205 -159.39814613 128.24486553 -155.92266846 128.20770264 C-152.37673284 128.16770822 -148.83095963 128.11659516 -145.28515625 128.06640625 C-138.32694149 127.96956128 -131.3686226 127.88518409 -124.41015625 127.80859375 C-124.77109375 127.25429688 -125.13203125 126.7 -125.50390625 126.12890625 C-126.2 125.04222656 -126.2 125.04222656 -126.91015625 123.93359375 C-127.60625 122.85464844 -127.60625 122.85464844 -128.31640625 121.75390625 C-129.41015625 119.80859375 -129.41015625 119.80859375 -129.41015625 117.80859375 C-130.03798508 117.82778366 -130.6658139 117.84697357 -131.31266785 117.866745 C-137.84970447 118.06348455 -144.38706717 118.23838342 -150.92504883 118.40063477 C-153.36465394 118.46404536 -155.80412115 118.53301563 -158.2434082 118.60766602 C-161.75059908 118.71403106 -165.25780049 118.80036246 -168.765625 118.8828125 C-170.40025948 118.93884895 -170.40025948 118.93884895 -172.06791687 118.99601746 C-181.7369085 119.18782221 -181.7369085 119.18782221 -185.41015625 115.80859375 C-185.84765625 113.24609375 -185.84765625 113.24609375 -185.41015625 110.80859375 C-183.41015625 108.80859375 -183.41015625 108.80859375 -181.30941772 108.56808472 C-180.44337921 108.57252594 -179.5773407 108.57696716 -178.68505859 108.58154297 C-177.21375992 108.58176956 -177.21375992 108.58176956 -175.71273804 108.58200073 C-174.65124542 108.5923233 -173.58975281 108.60264587 -172.49609375 108.61328125 C-171.41131744 108.61611115 -170.32654114 108.61894104 -169.20889282 108.62185669 C-165.73420312 108.63307797 -162.25976843 108.65818613 -158.78515625 108.68359375 C-156.43359746 108.69362103 -154.08203465 108.70274732 -151.73046875 108.7109375 C-145.95694381 108.73302364 -140.18356824 108.7665203 -134.41015625 108.80859375 C-134.62671875 108.26589844 -134.84328125 107.72320312 -135.06640625 107.1640625 C-135.34484375 106.44863281 -135.62328125 105.73320312 -135.91015625 104.99609375 C-136.18859375 104.28839844 -136.46703125 103.58070313 -136.75390625 102.8515625 C-137.41015625 100.80859375 -137.41015625 100.80859375 -137.41015625 97.80859375 C-138.24580864 97.8185865 -138.24580864 97.8185865 -139.0983429 97.82878113 C-144.88931515 97.89507941 -150.68017986 97.94037125 -156.47143555 97.97338867 C-158.63358946 97.98848819 -160.79571268 98.00896946 -162.95776367 98.03491211 C-166.06306525 98.07124392 -169.16796239 98.08830837 -172.2734375 98.1015625 C-173.24227371 98.11704636 -174.21110992 98.13253021 -175.20930481 98.14848328 C-176.56036568 98.14882317 -176.56036568 98.14882317 -177.9387207 98.14916992 C-178.73147903 98.15583176 -179.52423737 98.16249359 -180.34101868 98.1693573 C-182.97959061 97.70931028 -183.84674722 96.96089502 -185.41015625 94.80859375 C-185.72065835 91.90281945 -185.85433442 89.21573278 -185.84375 86.30859375 C-185.84899185 85.47650391 -185.8542337 84.64441406 -185.8596344 83.78710938 C-185.86605504 82.02865718 -185.86471702 80.27016204 -185.85620117 78.51171875 C-185.84768673 75.81823478 -185.87645674 73.12686834 -185.90820312 70.43359375 C-185.9098151 68.72526105 -185.90923768 67.01692459 -185.90625 65.30859375 C-185.91748398 64.50228516 -185.92871796 63.69597656 -185.94029236 62.86523438 C-185.87025659 57.25936559 -185.87025659 57.25936559 -183.65962219 55.09355164 C-181.14471771 53.65696783 -179.78754704 53.44327142 -176.91699219 53.46801758 C-175.59607574 53.46835747 -175.59607574 53.46835747 -174.24847412 53.46870422 C-172.8357724 53.49193001 -172.8357724 53.49193001 -171.39453125 53.515625 C-170.42356506 53.51986984 -169.45259888 53.52411469 -168.45220947 53.52848816 C-165.35457494 53.54526522 -162.25759376 53.58291603 -159.16015625 53.62109375 C-157.05860315 53.63614183 -154.95703985 53.64983002 -152.85546875 53.66210938 C-147.70677996 53.69516564 -142.55857884 53.74694167 -137.41015625 53.80859375 C-137.22187256 52.90475952 -137.22187256 52.90475952 -137.02978516 51.98266602 C-136.85882324 51.18401123 -136.68786133 50.38535645 -136.51171875 49.5625 C-136.34494629 48.77431885 -136.17817383 47.9861377 -136.00634766 47.17407227 C-135.16758026 43.84613725 -133.8633211 40.9130823 -132.41015625 37.80859375 C-133.63472534 37.81644897 -133.63472534 37.81644897 -134.8840332 37.82446289 C-138.11825342 37.84221235 -141.35241755 37.85436528 -144.58666992 37.86352539 C-146.59230266 37.87063187 -148.59791322 37.88336267 -150.60351562 37.89648438 C-167.23120075 37.93542509 -183.76098806 37.28428427 -200.41015625 36.80859375 C-200.41015625 82.34859375 -200.41015625 127.88859375 -200.41015625 174.80859375 C-181.60015625 174.80859375 -162.79015625 174.80859375 -143.41015625 174.80859375 C-142.09015625 175.79859375 -140.77015625 176.78859375 -139.41015625 177.80859375 C-139.78515625 180.74609375 -139.78515625 180.74609375 -140.41015625 183.80859375 C-143.13284506 185.16993816 -145.30892737 184.95838459 -148.35693359 184.9855957 C-149.60517914 184.99843094 -150.85342468 185.01126617 -152.13949585 185.02449036 C-153.50835779 185.03265713 -154.87722421 185.04010098 -156.24609375 185.046875 C-157.27843077 185.05298829 -157.27843077 185.05298829 -158.33162308 185.05922508 C-161.97368317 185.08008245 -165.61570561 185.09438607 -169.2578125 185.10375977 C-173.01971324 185.11482926 -176.78102328 185.14923527 -180.54271507 185.18893147 C-183.43550722 185.21507333 -186.32815801 185.22344932 -189.22105789 185.22704124 C-190.60775369 185.23191287 -191.99444294 185.24354343 -193.38102341 185.26207924 C-195.32206744 185.28641604 -197.26339853 185.28309125 -199.20458984 185.27856445 C-200.30886322 185.28443069 -201.4131366 185.29029694 -202.5508728 185.29634094 C-206.19764353 184.67426124 -207.16011127 183.71567182 -209.41015625 180.80859375 C-209.91352081 177.71947479 -209.91352081 177.71947479 -209.91809082 174.01452637 C-209.92433078 173.33197769 -209.93057075 172.64942901 -209.9369998 171.94619703 C-209.95295117 169.65974319 -209.94031826 167.37435231 -209.92773438 165.08789062 C-209.93315458 163.44848509 -209.94027667 161.80908442 -209.94897461 160.16969299 C-209.96722309 155.71720266 -209.96013423 151.26508271 -209.94745827 146.81258583 C-209.93733847 142.15527973 -209.94672111 137.49800557 -209.95300293 132.84069824 C-209.96028231 125.01922913 -209.95068401 117.19791104 -209.93164062 109.37646484 C-209.9098713 100.33091297 -209.91692247 91.28572172 -209.93894625 82.24017859 C-209.95709197 74.47701093 -209.95966263 66.71395191 -209.94919157 58.9507699 C-209.94295207 54.31277714 -209.9421335 49.67495394 -209.95533752 45.03697205 C-209.9668834 40.67677346 -209.95889365 36.31704027 -209.9357605 31.95689201 C-209.93046661 30.35569469 -209.93199881 28.75445827 -209.94081116 27.15327644 C-209.95172423 24.96920741 -209.93805703 22.78663452 -209.91809082 20.60266113 C-209.91658272 19.38002815 -209.91507462 18.15739517 -209.91352081 16.89771271 C-209.30989888 13.19332009 -208.41411657 12.00227591 -205.41015625 9.80859375 C-202.55694443 9.4228724 -200.09854987 9.27024946 -197.25 9.3125 C-196.46371719 9.31104477 -195.67743439 9.30958954 -194.86732483 9.30809021 C-193.20895676 9.30974692 -191.55057296 9.32128286 -189.89233398 9.34204102 C-187.35269015 9.37103628 -184.81512933 9.36263872 -182.27539062 9.34960938 C-180.66275027 9.35584591 -179.0501165 9.3642362 -177.4375 9.375 C-176.29836403 9.37059654 -176.29836403 9.37059654 -175.13621521 9.36610413 C-169.92328292 9.45954792 -169.92328292 9.45954792 -167.40063477 11.17553711 C-166.41015625 12.80859375 -166.41015625 12.80859375 -166.53515625 15.37109375 C-167.41015625 17.80859375 -167.41015625 17.80859375 -170.41015625 19.80859375 C-173.50463867 20.03564453 -173.50463867 20.03564453 -177.265625 20.00390625 C-177.92726151 20.00107635 -178.58889801 19.99824646 -179.27058411 19.99533081 C-181.37979362 19.98415293 -183.4885755 19.95905356 -185.59765625 19.93359375 C-187.02929073 19.92356082 -188.46093189 19.91443551 -189.89257812 19.90625 C-193.39857602 19.8842217 -196.90432438 19.8497086 -200.41015625 19.80859375 C-200.41015625 22.44859375 -200.41015625 25.08859375 -200.41015625 27.80859375 C-190.83050797 27.81689428 -181.25163409 27.7931058 -171.67219925 27.72831535 C-167.22403216 27.69923926 -162.77639298 27.6812305 -158.328125 27.68847656 C-154.03537464 27.69506273 -149.74366808 27.67262687 -145.45113373 27.63003922 C-143.81331854 27.61889504 -142.17539765 27.61821976 -140.53757477 27.62817001 C-138.24296692 27.64032402 -135.95155444 27.61530519 -133.65722656 27.58154297 C-132.35150696 27.57710175 -131.04578735 27.57266052 -129.70050049 27.56808472 C-126.12758646 27.10040264 -126.12758646 27.10040264 -123.95721436 23.76028442 C-123.44668518 22.7862265 -122.93615601 21.81216858 -122.41015625 20.80859375 C-123.79521362 20.78671997 -123.79521362 20.78671997 -125.20825195 20.7644043 C-128.63592829 20.70333067 -132.06280287 20.62917765 -135.48999023 20.54614258 C-136.97295479 20.51289952 -138.45604569 20.48486552 -139.93920898 20.4621582 C-142.07199918 20.42859907 -144.20363237 20.37628737 -146.3359375 20.3203125 C-147.61895752 20.29412842 -148.90197754 20.26794434 -150.22387695 20.2409668 C-153.41015625 19.80859375 -153.41015625 19.80859375 -155.36401367 18.47192383 C-156.41015625 16.80859375 -156.41015625 16.80859375 -156.22265625 13.68359375 C-155.95453125 12.73484375 -155.68640625 11.78609375 -155.41015625 10.80859375 C-152.00775343 9.10739234 -148.12004095 9.73767324 -144.37890625 9.7734375 C-142.51692157 9.76972107 -140.65494025 9.76378857 -138.79296875 9.75585938 C-135.86077772 9.74534885 -132.93100739 9.74581921 -129.99902344 9.78442383 C-116.92627581 10.34691817 -116.92627581 10.34691817 -105.47265625 5.0078125 C-104.09635893 3.62982703 -102.73893405 2.23245745 -101.41015625 0.80859375 C-72.40153837 -20.73504342 -29.4792456 -19.60321678 0 0 Z M-107.41015625 18.80859375 C-108.02375 19.33710938 -108.63734375 19.865625 -109.26953125 20.41015625 C-121.89631163 31.70475338 -129.22468537 50.86918153 -130.6315918 67.41235352 C-131.72273615 92.40630623 -124.93835152 112.4810633 -108.80859375 131.71875 C-95.54341959 146.06212798 -75.44320646 155.08970765 -56.09765625 156.19140625 C-33.63314474 156.91854029 -13.21934809 151.27419372 3.58984375 135.80859375 C4.4303125 135.05964844 5.27078125 134.31070313 6.13671875 133.5390625 C21.97505733 118.68462071 28.10899546 99.61178121 31.58984375 78.80859375 C33.40234375 78.18359375 33.40234375 78.18359375 35.58984375 77.80859375 C38.58984375 79.80859375 38.58984375 79.80859375 39.0234375 81.6640625 C39.04271569 93.17314408 35.24016893 103.99423451 30.640625 114.41796875 C29.51539786 116.87819535 29.51539786 116.87819535 28.58984375 119.80859375 C29.31171875 120.48921875 30.03359375 121.16984375 30.77734375 121.87109375 C32.75538307 123.88880722 34.67436667 125.93440465 36.46484375 128.12109375 C36.89539063 128.63285156 37.3259375 129.14460937 37.76953125 129.671875 C38.58984375 131.80859375 38.58984375 131.80859375 37.85546875 135.6328125 C37.45521893 138.16256664 37.31805269 139.3358598 38.60791016 141.5793457 C40.14240445 143.2818262 41.74184361 144.79759587 43.46484375 146.30859375 C44.03332031 146.84484375 44.60179687 147.38109375 45.1875 147.93359375 C47.54309888 150.60437214 47.54309888 150.60437214 50.58984375 151.80859375 C50.58984375 113.85859375 50.58984375 75.90859375 50.58984375 36.80859375 C44.31984375 36.80859375 38.04984375 36.80859375 31.58984375 36.80859375 C32.57984375 39.77859375 33.56984375 42.74859375 34.58984375 45.80859375 C35.36694052 48.40480342 36.11882721 51.00875396 36.83984375 53.62109375 C37.195625 54.88566406 37.55140625 56.15023437 37.91796875 57.453125 C38.52816116 60.50053941 38.76261379 61.99258198 37.58984375 64.80859375 C36.58984375 65.80859375 36.58984375 65.80859375 34.02734375 65.87109375 C33.22296875 65.85046875 32.41859375 65.82984375 31.58984375 65.80859375 C31.19796875 64.63296875 30.80609375 63.45734375 30.40234375 62.24609375 C30.12648438 61.42753906 29.850625 60.60898438 29.56640625 59.765625 C28.85229777 57.60330452 28.16301192 55.43274222 27.48828125 53.2578125 C23.58220542 40.7957239 18.23208433 30.67130342 9.58984375 20.80859375 C8.996875 20.12023437 8.40390625 19.431875 7.79296875 18.72265625 C-5.25489805 4.61534727 -25.36693252 -4.01896897 -44.41015625 -5.19140625 C-45.26609375 -5.24425781 -46.12203125 -5.29710937 -47.00390625 -5.3515625 C-70.01909266 -6.06305348 -90.99650908 2.91145996 -107.41015625 18.80859375 Z M20.58984375 19.80859375 C25.30251361 27.71120692 25.30251361 27.71120692 29.47412109 28.71679688 C30.93519287 28.65395508 30.93519287 28.65395508 32.42578125 28.58984375 C34.02099609 28.55117187 34.02099609 28.55117187 35.6484375 28.51171875 C36.74285156 28.4446875 37.83726562 28.37765625 38.96484375 28.30859375 C40.64126953 28.25445312 40.64126953 28.25445312 42.3515625 28.19921875 C45.10119669 28.10521416 47.84373221 27.97398384 50.58984375 27.80859375 C50.58984375 25.16859375 50.58984375 22.52859375 50.58984375 19.80859375 C40.68984375 19.80859375 30.78984375 19.80859375 20.58984375 19.80859375 Z M-175.41015625 63.80859375 C-175.41015625 71.72859375 -175.41015625 79.64859375 -175.41015625 87.80859375 C-163.53015625 87.80859375 -151.65015625 87.80859375 -139.41015625 87.80859375 C-139.41015625 79.88859375 -139.41015625 71.96859375 -139.41015625 63.80859375 C-151.29015625 63.80859375 -163.17015625 63.80859375 -175.41015625 63.80859375 Z M22.58984375 127.80859375 C21.54193661 129.12075574 20.52758747 130.45974573 19.52734375 131.80859375 C15.89705421 136.54958789 11.88524658 140.67494249 7.58984375 144.80859375 C6.58742538 145.80616952 5.58702289 146.80578083 4.58984375 147.80859375 C3.92984375 148.46859375 3.26984375 149.12859375 2.58984375 149.80859375 C4.23984375 151.45859375 5.88984375 153.10859375 7.58984375 154.80859375 C11.0561421 153.32205869 13.28006411 151.35137024 15.91796875 148.67578125 C16.7171875 147.87011719 17.51640625 147.06445312 18.33984375 146.234375 C19.16484375 145.39261719 19.98984375 144.55085938 20.83984375 143.68359375 C22.10054687 142.40935547 22.10054687 142.40935547 23.38671875 141.109375 C25.45900058 139.01354452 27.52646768 136.91318662 29.58984375 134.80859375 C28.61418263 133.63899388 27.63421875 132.47298198 26.65234375 131.30859375 C26.10707031 130.65890625 25.56179688 130.00921875 25 129.33984375 C24.53464844 128.83453125 24.06929687 128.32921875 23.58984375 127.80859375 C23.25984375 127.80859375 22.92984375 127.80859375 22.58984375 127.80859375 Z M27.42578125 148.77734375 C26.61367188 149.61265625 25.8015625 150.44796875 24.96484375 151.30859375 C23.73894531 152.5615625 23.73894531 152.5615625 22.48828125 153.83984375 C21.86179687 154.48953125 21.2353125 155.13921875 20.58984375 155.80859375 C27.32976699 163.84554689 34.67096657 171.25924757 42.03881836 178.7175293 C43.70323485 180.40872537 45.36044432 182.10704352 47.01049805 183.81225586 C49.40441655 186.28504515 51.82033296 188.73429032 54.2421875 191.1796875 C54.97469223 191.94518417 55.70719696 192.71068085 56.4618988 193.49937439 C60.73673639 197.79752833 60.73673639 197.79752833 66.49438477 199.35571289 C69.49946969 199.01471113 69.49946969 199.01471113 71.46484375 197.68359375 C73.21206075 194.77156541 73.72030564 193.26583391 73.58984375 189.80859375 C72.33398697 187.94819975 72.33398697 187.94819975 70.59887695 186.12890625 C69.95769928 185.42515869 69.31652161 184.72141113 68.65591431 183.99633789 C65.26172747 180.40226298 61.81314321 176.8692992 58.3203125 173.37109375 C57.55809891 172.60555176 56.79588531 171.84000977 56.01057434 171.05126953 C54.41436163 169.45003146 52.81682583 167.85011132 51.21801758 166.25146484 C48.76160198 163.79283781 46.31332335 161.32628979 43.86523438 158.859375 C42.30908246 157.30029331 40.75245891 155.74168218 39.1953125 154.18359375 C38.46201218 153.44310791 37.72871185 152.70262207 36.97319031 151.93969727 C36.29520889 151.26479248 35.61722748 150.5898877 34.91870117 149.89453125 C34.32248459 149.29688965 33.72626801 148.69924805 33.11198425 148.08349609 C30.54386546 145.93251157 29.84759678 146.57410363 27.42578125 148.77734375 Z M-96.41015625 184.80859375 C-96.91527869 186.41115483 -97.41407252 188.01571167 -97.91015625 189.62109375 C-98.18859375 190.51441406 -98.46703125 191.40773438 -98.75390625 192.328125 C-99.53803976 194.8643277 -99.53803976 194.8643277 -99.41015625 197.80859375 C-82.91015625 197.80859375 -66.41015625 197.80859375 -49.41015625 197.80859375 C-50.35701444 190.71231499 -50.35701444 190.71231499 -53.41015625 184.80859375 C-54.76110607 184.71590376 -56.11682716 184.69112049 -57.47094727 184.69506836 C-58.33176407 184.69514389 -59.19258087 184.69521942 -60.07948303 184.69529724 C-61.48259987 184.70303917 -61.48259987 184.70303917 -62.9140625 184.7109375 C-64.34358498 184.71305992 -64.34358498 184.71305992 -65.80198669 184.71522522 C-68.8589079 184.72084223 -71.91575702 184.73339759 -74.97265625 184.74609375 C-77.03971249 184.75110656 -79.10676987 184.75566984 -81.17382812 184.75976562 C-86.25263213 184.77081719 -91.33138195 184.7880932 -96.41015625 184.80859375 Z M-124.41015625 209.80859375 C-125.07015625 211.45859375 -125.73015625 213.10859375 -126.41015625 214.80859375 C-92.42015625 214.80859375 -58.43015625 214.80859375 -23.41015625 214.80859375 C-24.85427802 209.70457067 -24.85427802 209.70457067 -28.50476074 208.02035522 C-32.63337713 206.50851026 -36.53784523 206.38552091 -40.89648438 206.42041016 C-41.71531601 206.4151532 -42.53414764 206.40989624 -43.37779236 206.40447998 C-46.06586169 206.39135078 -48.75333162 206.39999276 -51.44140625 206.41015625 C-53.32035434 206.40813348 -55.19930166 206.40522034 -57.07824707 206.40145874 C-61.00878401 206.39704498 -64.93911588 206.40343589 -68.86962891 206.41748047 C-73.89660212 206.43457175 -78.92309475 206.42472549 -83.95005035 206.40676308 C-87.82777498 206.39589962 -91.70538651 206.39938333 -95.58311462 206.40714645 C-97.43619342 206.40914138 -99.28928262 206.40671416 -101.14234924 206.39970779 C-103.73645051 206.39205104 -106.32978375 206.4037562 -108.92382812 206.42041016 C-109.68247665 206.41433746 -110.44112518 206.40826477 -111.22276306 206.40200806 C-116.30654673 206.46218093 -119.97074985 207.24325217 -124.41015625 209.80859375 Z " fill="#265028" transform="translate(319.41015625,151.19140625)"/>
<path d="M0 0 C4.33802281 3.32941082 8.18505665 7.09257318 12 11 C12.99773437 11.96679688 12.99773437 11.96679688 14.015625 12.953125 C27.35673566 26.7749964 31.65666979 45.39976491 31.54345703 64.00439453 C30.9111496 84.75914892 21.77883684 101.94444338 6.8125 116.1875 C-9.25183685 129.77397554 -29.13380069 135.44189418 -50 134 C-56.73354054 133.16522322 -63.41536648 132.04580202 -69 128 C-69.5625 125.5 -69.5625 125.5 -69 123 C-67.34375 121.26171875 -67.34375 121.26171875 -65 120 C-62.21484375 120.36328125 -62.21484375 120.36328125 -58.9375 121.3125 C-41.56799615 125.46961331 -24.79465065 123.28543232 -8.94921875 114.88671875 C5.24421293 105.80668233 15.66640721 91.81737456 19.46166992 75.33789062 C23.09027238 57.55709562 20.11961945 40.16195475 10.06640625 24.90625 C0.40221431 11.31426738 -13.45826053 2.04551571 -30 -1 C-48.68317024 -3.57017157 -65.64648283 -0.14775518 -80.98046875 11.20703125 C-93.41358436 21.94728694 -102.77680343 36.48075621 -104.18017578 53.13867188 C-105.31910373 72.48820054 -100.56635641 88.51564043 -88.171875 103.6484375 C-85.24563375 106.81677784 -82.0083293 109.49111513 -78.58984375 112.11328125 C-77 114 -77 114 -77.12890625 116.60546875 C-78 119 -78 119 -80 121 C-85.89144205 120.55572732 -88.91209793 116.87605302 -93 113 C-93.57878906 112.50757813 -94.15757812 112.01515625 -94.75390625 111.5078125 C-107.26047413 100.30703477 -114.27126932 81.89292744 -115.203125 65.40625 C-115.46633286 43.47226185 -108.55125289 24.48016595 -93.44140625 8.34765625 C-68.22814428 -15.89741646 -29.00776006 -19.79513259 0 0 Z " fill="#265028" transform="translate(311,166)"/>
<path d="M0 0 C4.85942673 4.67944796 7.05840931 9.1232451 7.375 15.8125 C7.23680237 20.97955595 6.18295461 24.88243822 3 29 C-2.76651326 34.32561285 -7.52348397 36.38766763 -15.37109375 36.2734375 C-21.14379879 35.67300756 -25.36600126 32.97115088 -29.375 28.875 C-33.07707923 24.15130874 -34.27824255 18.77324049 -33.83984375 12.828125 C-32.71039126 7.16989698 -29.9292714 2.21203561 -25.29296875 -1.2890625 C-16.83658143 -6.410796 -7.81166871 -6.02070076 0 0 Z M-23.4375 10.75 C-24.32240404 14.28961616 -24.01172365 17.50560698 -23 21 C-21.10571954 23.38312703 -19.69988821 24.6500559 -17 26 C-11.18654053 26.53365513 -11.18654053 26.53365513 -6.0625 24.125 C-3.28931291 21.26777694 -2.79496102 19.57699254 -2.625 15.6875 C-2.68276084 12.10055176 -2.92499415 11.11250878 -5 8 C-11.93633804 3.37577464 -17.95578157 4.07660365 -23.4375 10.75 Z " fill="#265028" transform="translate(318,211)"/>
<path d="M0 0 C1 1 1 1 1.1875 3.4375 C1 6 1 6 -1 8 C-4.25 7.6875 -4.25 7.6875 -8 7 C-11.98091509 6.27118304 -11.98091509 6.27118304 -16 6 C-13.63771225 8.74056259 -11.52916507 9.67950281 -8.125 10.8125 C-3.13314272 12.72179432 -0.85649055 14.48490204 2 19 C3.44591065 22.5244072 3.03975655 23.87410424 1.875 27.5625 C-0.38543983 31.70663968 -2.80670702 33.90335351 -7 36 C-14.25791554 36.76865908 -19.58186927 35.62933133 -25.4375 31.125 C-27 29 -27 29 -27.375 26.375 C-27 24 -27 24 -25 22 C-22.625 21.6875 -22.625 21.6875 -20 22 C-19.38125 22.495 -18.7625 22.99 -18.125 23.5 C-15.09967752 25.63552175 -12.60614422 25.20804678 -9 25 C-9 24.01 -9 23.02 -9 22 C-9.73605469 21.69707031 -10.47210938 21.39414063 -11.23046875 21.08203125 C-21.73380512 16.57267284 -21.73380512 16.57267284 -25 12 C-26.3507256 7.63000541 -26.43387664 5.83561427 -24.3125 1.75 C-17.20276539 -6.70481954 -8.63062943 -6.73610102 0 0 Z " fill="#265028" transform="translate(242,211)"/>
<path d="M0 0 C1.19012695 0.00580078 1.19012695 0.00580078 2.40429688 0.01171875 C3.22865234 0.03621094 4.05300781 0.06070313 4.90234375 0.0859375 C5.73056641 0.08722656 6.55878906 0.08851563 7.41210938 0.08984375 C13.55877439 0.17986814 13.55877439 0.17986814 15.83984375 2.4609375 C16.08984375 4.9609375 16.08984375 4.9609375 15.83984375 7.4609375 C13.83984375 9.4609375 13.83984375 9.4609375 11.23828125 9.65625 C10.24054688 9.63304687 9.2428125 9.60984375 8.21484375 9.5859375 C6.71050781 9.55886719 6.71050781 9.55886719 5.17578125 9.53125 C4.40492188 9.50804687 3.6340625 9.48484375 2.83984375 9.4609375 C2.83984375 11.4409375 2.83984375 13.4209375 2.83984375 15.4609375 C3.53851563 15.43773437 4.2371875 15.41453125 4.95703125 15.390625 C5.86710937 15.37257812 6.7771875 15.35453125 7.71484375 15.3359375 C9.07222656 15.30113281 9.07222656 15.30113281 10.45703125 15.265625 C12.83984375 15.4609375 12.83984375 15.4609375 14.83984375 17.4609375 C15.19913054 20.26337443 15.32875592 21.80386446 13.61328125 24.109375 C11.31806609 25.85859184 10.00253623 25.77235891 7.15234375 25.6484375 C6.34410156 25.62136719 5.53585937 25.59429687 4.703125 25.56640625 C4.08824219 25.53160156 3.47335937 25.49679688 2.83984375 25.4609375 C2.83984375 27.1109375 2.83984375 28.7609375 2.83984375 30.4609375 C3.52691406 30.42613281 4.21398437 30.39132813 4.921875 30.35546875 C5.82292969 30.32839844 6.72398437 30.30132812 7.65234375 30.2734375 C8.99232422 30.22123047 8.99232422 30.22123047 10.359375 30.16796875 C12.83984375 30.4609375 12.83984375 30.4609375 14.640625 31.8125 C16.33521873 34.1418764 16.27164753 35.65421295 15.83984375 38.4609375 C12.00278368 41.01897755 8.78891108 40.82851001 4.33984375 40.8359375 C3.56769531 40.86042969 2.79554688 40.88492188 2 40.91015625 C-3.63802634 40.93947008 -3.63802634 40.93947008 -5.87939453 38.88525391 C-7.63526316 35.56162152 -7.54878816 32.96134379 -7.55859375 29.2109375 C-7.56146393 28.51581055 -7.56433411 27.82068359 -7.56729126 27.10449219 C-7.56932759 25.63866356 -7.56382781 24.17280749 -7.55126953 22.70703125 C-7.53520785 20.46812973 -7.55113083 18.23103313 -7.5703125 15.9921875 C-7.56832999 14.5651002 -7.56448615 13.13801401 -7.55859375 11.7109375 C-7.55520996 10.41671875 -7.55182617 9.1225 -7.54833984 7.7890625 C-6.94782828 2.64052563 -5.39103385 -0.0610509 0 0 Z " fill="#265028" transform="translate(260.16015625,206.5390625)"/>
<path d="M0 0 C0.85428589 -0.00630432 1.70857178 -0.01260864 2.58874512 -0.019104 C3.51272095 -0.01505554 4.43669678 -0.01100708 5.38867188 -0.00683594 C6.80895691 -0.00970612 6.80895691 -0.00970612 8.25793457 -0.01263428 C10.26196559 -0.01399667 12.26600542 -0.0102965 14.27001953 -0.00195312 C17.34492741 0.00874559 20.41925101 -0.00184666 23.49414062 -0.01464844 C25.43815234 -0.01332685 27.38216368 -0.01076448 29.32617188 -0.00683594 C30.71213562 -0.01290863 30.71213562 -0.01290863 32.12609863 -0.019104 C33.40752747 -0.00964752 33.40752747 -0.00964752 34.71484375 0 C35.4682605 0.00159119 36.22167725 0.00318237 36.9979248 0.00482178 C38.85742188 0.25878906 38.85742188 0.25878906 40.85742188 2.25878906 C41.10742188 4.75878906 41.10742188 4.75878906 40.85742188 7.25878906 C38.4689536 9.64725734 37.96521612 9.51071347 34.71484375 9.51757812 C33.86055786 9.52388245 33.00627197 9.53018677 32.12609863 9.53668213 C31.2021228 9.53263367 30.27814697 9.52858521 29.32617188 9.52441406 C28.37931519 9.52632751 27.4324585 9.52824097 26.45690918 9.5302124 C24.45287816 9.53157479 22.44883833 9.52787462 20.44482422 9.51953125 C17.36991634 9.50883254 14.29559274 9.51942478 11.22070312 9.53222656 C9.27669141 9.53090498 7.33268007 9.5283426 5.38867188 9.52441406 C4.00270813 9.53048676 4.00270813 9.53048676 2.58874512 9.53668213 C1.73445923 9.53037781 0.88017334 9.52407349 0 9.51757812 C-0.75341675 9.51598694 -1.5068335 9.51439575 -2.28308105 9.51275635 C-4.14257812 9.25878906 -4.14257812 9.25878906 -6.14257812 7.25878906 C-6.39257812 4.75878906 -6.39257812 4.75878906 -6.14257812 2.25878906 C-3.75410985 -0.12967921 -3.25037237 0.00686466 0 0 Z " fill="#265028" transform="translate(140.142578125,299.7412109375)"/>
</svg>
