<?xml version="1.0" standalone="no"?>
<!DOCTYPE svg PUBLIC "-//W3C//DTD SVG 20010904//EN"
 "http://www.w3.org/TR/2001/REC-SVG-20010904/DTD/svg10.dtd">
<svg version="1.0" xmlns="http://www.w3.org/2000/svg"
 width="512.000000pt" height="512.000000pt" viewBox="0 0 512.000000 512.000000"
 preserveAspectRatio="xMidYMid meet">

<g transform="translate(0.000000,512.000000) scale(0.100000,-0.100000)"
fill="#000000" stroke="none">
<path d="M1144 3612 c-5 -4 -18 -18 -27 -32 -16 -22 -17 -93 -17 -886 l0 -861
25 -27 24 -26 1311 0 c1297 0 1310 0 1330 20 20 20 20 33 20 899 l0 880 -26
20 -27 21 -1301 0 c-715 0 -1306 -4 -1312 -8z m2214 -114 c17 -17 15 -44 -4
-62 -22 -23 -41 -20 -59 8 -13 19 -14 29 -5 45 12 23 49 28 68 9z m152 -3 c17
-20 5 -62 -21 -70 -24 -8 -59 19 -59 45 0 37 55 55 80 25z m152 -10 c9 -21 8
-28 -7 -45 -10 -11 -23 -20 -28 -20 -17 0 -47 32 -47 50 0 44 63 56 82 15z
m-1542 -153 c0 -48 14 -62 62 -62 34 0 39 -3 56 -42 l19 -43 -28 -30 c-39 -42
-36 -65 12 -108 48 -44 64 -46 101 -10 l28 26 40 -18 c37 -17 40 -21 40 -60 0
-54 13 -65 76 -65 64 0 84 17 84 69 0 36 2 39 41 50 39 12 43 11 68 -13 38
-37 62 -33 110 19 22 24 41 47 41 49 0 3 -13 21 -30 39 l-30 34 20 41 c19 38
23 41 67 44 l48 3 5 55 5 55 395 0 395 0 3 -663 2 -663 -24 -24 -25 -25 -1241
0 -1241 0 -24 25 -25 24 0 666 0 665 475 0 475 0 0 -38z m588 10 c8 -53 -46
-133 -105 -158 -98 -42 -209 18 -229 123 -12 64 -12 64 168 61 162 -3 163 -3
166 -26z"/>
<path d="M1366 3185 c-20 -21 -21 -59 0 -79 13 -13 43 -16 169 -16 l155 0 17
26 c15 24 15 29 2 53 l-15 26 -156 3 c-132 2 -159 0 -172 -13z"/>
<path d="M1367 2892 c-23 -25 -22 -69 2 -82 12 -6 115 -10 265 -10 l246 0 15
24 c18 27 7 69 -20 80 -9 3 -124 6 -254 6 -218 0 -239 -2 -254 -18z"/>
<path d="M2992 2463 c-40 -159 -72 -291 -72 -295 0 -13 108 -9 116 4 4 6 11
28 15 47 4 20 21 88 37 151 17 63 46 175 66 248 l34 132 -61 0 -62 0 -73 -287z"/>
<path d="M2680 2591 l-135 -77 0 -73 0 -73 130 -75 c72 -41 136 -77 143 -80 9
-4 12 15 12 74 l0 80 -90 34 c-49 18 -90 36 -90 39 0 3 41 21 90 39 l90 34 0
79 c0 43 -3 78 -7 77 -5 0 -69 -35 -143 -78z"/>
<path d="M3250 2591 l0 -79 90 -32 c50 -18 90 -35 90 -39 0 -4 -40 -22 -90
-40 l-90 -33 0 -79 c0 -44 2 -79 5 -79 3 0 68 36 145 81 l140 81 0 68 0 69
-86 50 c-47 28 -88 51 -89 51 -2 0 -27 14 -55 30 -28 17 -53 30 -55 30 -3 0
-5 -35 -5 -79z"/>
<path d="M1370 2600 c-24 -24 -26 -53 -4 -74 13 -14 60 -16 359 -16 l345 0 15
24 c19 28 9 58 -25 76 -11 6 -141 10 -344 10 -313 0 -327 -1 -346 -20z"/>
<path d="M1362 2308 c-20 -20 -14 -65 10 -82 20 -14 81 -16 470 -16 435 0 449
1 468 20 25 25 26 52 2 73 -17 15 -65 17 -478 17 -345 0 -463 -3 -472 -12z"/>
<path d="M2120 1630 c0 -58 -36 -126 -102 -195 -32 -32 -58 -59 -58 -60 0 0
225 0 499 0 l499 0 -53 50 c-58 54 -100 131 -111 202 l-6 43 -334 0 -334 0 0
-40z"/>
</g>
</svg>
