<?xml version="1.0" standalone="no"?>
<!DOCTYPE svg PUBLIC "-//W3C//DTD SVG 20010904//EN"
 "http://www.w3.org/TR/2001/REC-SVG-20010904/DTD/svg10.dtd">
<svg version="1.0" xmlns="http://www.w3.org/2000/svg"
 width="512.000000pt" height="512.000000pt" viewBox="0 0 512.000000 512.000000"
 preserveAspectRatio="xMidYMid meet">

<g transform="translate(0.000000,512.000000) scale(0.100000,-0.100000)"
fill="#000000" stroke="none">
<path d="M3325 4599 c-235 -31 -474 -154 -635 -326 -292 -312 -367 -764 -191
-1156 103 -228 307 -427 544 -529 144 -62 245 -82 422 -81 130 0 164 4 250 27
290 76 545 278 672 531 92 181 117 290 116 495 0 133 -4 169 -26 251 -48 183
-134 334 -269 475 -186 193 -434 305 -704 318 -60 2 -140 1 -179 -5z m373 -84
c229 -58 444 -206 572 -395 124 -183 175 -351 174 -575 -1 -118 -5 -156 -27
-239 -79 -296 -290 -542 -568 -662 -559 -243 -1202 76 -1355 671 -24 93 -25
112 -21 265 4 130 9 181 26 239 49 166 126 296 254 428 248 255 599 355 945
268z"/>
<path d="M3363 4458 c-105 -39 -211 -165 -278 -329 -36 -89 -82 -246 -74 -254
3 -2 32 0 65 5 32 5 122 14 198 20 76 5 141 11 143 13 2 2 2 130 1 284 l-3
281 -52 -20z m-7 -485 c-4 -9 -27 -13 -68 -14 -35 0 -93 -3 -130 -8 -38 -4
-68 -3 -68 2 0 20 52 162 79 215 38 75 97 153 146 192 l40 32 3 -203 c1 -112
0 -209 -2 -216z"/>
<path d="M3490 4195 l0 -283 78 -6 c149 -12 287 -26 310 -32 29 -8 29 10 -3
122 -70 244 -212 433 -354 474 l-31 9 0 -284z m138 141 c64 -57 168 -258 187
-358 6 -32 5 -36 -12 -32 -10 3 -70 8 -133 12 l-115 7 -3 214 -2 214 27 -18
c16 -10 39 -27 51 -39z"/>
<path d="M3110 4411 c-270 -117 -458 -326 -540 -600 -31 -106 -30 -108 37 -71
69 39 164 76 258 100 l69 18 27 103 c46 179 98 293 187 411 30 38 52 71 50 73
-2 2 -41 -14 -88 -34z m-115 -170 c-33 -66 -71 -171 -94 -262 l-18 -72 -82
-23 c-45 -13 -98 -31 -118 -39 -20 -8 -38 -13 -40 -11 -9 8 68 160 111 219 24
34 71 87 103 118 57 56 155 131 161 124 2 -2 -8 -26 -23 -54z"/>
<path d="M3716 4438 c4 -6 29 -40 56 -76 27 -35 66 -99 87 -141 43 -84 98
-249 108 -318 3 -25 11 -46 17 -48 178 -45 290 -88 356 -135 36 -25 36 -25 9
70 -67 241 -227 449 -439 568 -71 40 -203 94 -194 80z m291 -220 c70 -57 145
-146 196 -233 40 -68 72 -143 64 -151 -3 -3 -18 1 -34 9 -15 8 -64 25 -108 37
-44 12 -83 25 -88 29 -4 4 -19 49 -33 99 -13 51 -41 129 -60 175 -20 45 -38
88 -41 96 -9 21 31 -3 104 -61z"/>
<path d="M3220 3829 c-124 -11 -211 -26 -224 -39 -7 -7 -11 -90 -11 -235 0
-186 3 -227 15 -238 19 -18 139 -36 298 -44 l122 -6 0 286 0 287 -52 -1 c-29
-1 -96 -5 -148 -10z m140 -275 l0 -227 -96 7 c-99 8 -203 22 -211 30 -9 9 -15
235 -9 308 l8 76 51 8 c47 6 177 19 235 23 l22 1 0 -226z"/>
<path d="M3490 3571 c0 -234 2 -271 15 -271 8 0 15 -7 15 -17 0 -14 11 -15
103 -9 133 8 271 26 288 37 11 7 14 55 14 243 0 129 -3 237 -6 240 -10 10
-196 34 -316 42 l-113 7 0 -272z m285 187 c44 -5 82 -12 85 -15 7 -7 6 -370
-1 -377 -9 -10 -102 -23 -211 -31 l-98 -7 0 226 0 227 73 -6 c39 -4 108 -11
152 -17z"/>
<path d="M2790 3746 c-234 -80 -307 -166 -225 -264 31 -37 137 -92 240 -125
118 -37 128 -39 120 -19 -11 30 -17 285 -8 365 11 93 14 92 -127 43z m65 -191
c0 -111 -3 -145 -13 -145 -35 0 -175 65 -214 99 l-43 39 20 28 c30 40 189 122
240 124 6 0 10 -55 10 -145z"/>
<path d="M3995 3551 l0 -228 69 19 c37 10 95 30 128 44 220 92 247 202 75 298
-56 31 -231 96 -260 96 -9 0 -12 -62 -12 -229z m195 103 c77 -36 130 -77 130
-101 0 -33 -79 -85 -197 -129 l-63 -24 0 151 0 151 27 -7 c15 -3 61 -22 103
-41z"/>
<path d="M2551 3363 c21 -80 53 -170 77 -218 64 -129 190 -274 307 -355 51
-35 254 -134 261 -127 3 2 -16 31 -42 63 -90 116 -154 256 -194 424 -13 52
-24 96 -25 97 -1 2 -36 12 -78 22 -94 25 -198 66 -258 103 -25 15 -49 28 -52
28 -3 0 -1 -17 4 -37z m343 -204 c8 -52 60 -206 88 -266 42 -87 42 -87 7 -66
-103 61 -229 199 -293 323 -71 139 -76 133 68 86 l124 -41 6 -36z"/>
<path d="M4321 3375 c-44 -31 -187 -88 -276 -109 l-71 -17 -12 -67 c-30 -156
-100 -317 -192 -441 -33 -45 -58 -81 -55 -81 2 0 45 18 95 39 211 92 372 242
468 436 51 103 103 266 85 265 -5 -1 -23 -12 -42 -25z m-80 -180 c-63 -136
-154 -249 -270 -334 -38 -28 -71 -51 -74 -51 -3 0 12 37 33 83 35 75 62 154
90 264 10 40 13 42 68 58 31 8 84 26 117 38 33 13 62 20 63 15 2 -5 -10 -37
-27 -73z"/>
<path d="M3015 3201 c14 -76 77 -249 115 -318 70 -125 169 -217 268 -247 l22
-7 0 284 0 284 -122 8 c-68 3 -160 12 -206 19 l-84 12 7 -35z m273 -57 l72 -7
0 -208 c0 -146 -3 -209 -11 -209 -25 0 -127 120 -168 199 -38 73 -91 209 -91
234 0 5 26 7 63 3 34 -3 95 -9 135 -12z"/>
<path d="M3785 3220 c-27 -4 -105 -11 -172 -15 l-123 -8 0 -284 0 -284 23 6
c99 29 196 116 264 236 41 72 105 245 118 322 7 37 7 37 -26 36 -19 -1 -56 -5
-84 -9z m35 -73 c0 -27 -50 -159 -86 -228 -38 -71 -148 -199 -172 -199 -9 0
-12 50 -12 209 l0 209 88 7 c48 3 94 8 102 9 40 9 80 5 80 -7z"/>
<path d="M1681 3320 c-259 -55 -456 -229 -526 -465 -12 -39 -13 -40 -62 -41
-122 -2 -195 -119 -141 -224 25 -49 89 -90 139 -90 23 0 28 -5 33 -35 4 -19
17 -47 30 -62 21 -24 32 -28 94 -31 l69 -4 5 -68 c9 -120 64 -197 179 -250
l69 -32 0 -48 0 -48 -152 -5 c-123 -4 -166 -9 -218 -27 -121 -41 -186 -81
-274 -169 -73 -71 -118 -143 -153 -243 -25 -70 -27 -85 -31 -325 l-4 -253 -64
0 -64 0 0 -95 0 -95 1630 0 1630 0 0 95 0 95 -120 0 c-66 0 -120 3 -120 7 0 6
237 784 247 811 4 9 -121 12 -607 12 l-612 0 -44 38 c-111 98 -278 152 -471
152 l-123 0 0 49 0 49 70 33 c110 50 168 126 177 230 l6 58 73 16 c83 18 110
42 120 107 6 33 10 38 33 38 42 0 114 41 134 78 25 43 25 120 1 162 -27 46
-77 73 -136 74 l-50 1 -19 54 c-95 271 -328 445 -609 456 -52 2 -115 0 -139
-5z m234 -65 c207 -43 382 -197 457 -401 19 -51 23 -85 26 -241 l4 -182 -39
-10 c-21 -5 -49 -11 -63 -13 l-25 -3 -5 180 c-5 177 -6 181 -37 247 -41 88
-113 160 -201 201 l-67 32 -170 0 -170 0 -67 -32 c-88 -41 -160 -113 -201
-201 -31 -65 -32 -72 -37 -232 l-5 -165 -48 -3 c-76 -5 -77 -2 -77 172 0 170
10 223 64 331 120 241 397 375 661 320z m86 -273 c25 -12 65 -39 89 -60 l44
-37 -80 -6 c-106 -8 -168 -37 -275 -129 -111 -97 -162 -120 -260 -120 -42 0
-90 5 -108 11 -27 10 -31 15 -31 47 1 85 66 198 145 255 83 58 123 67 285 65
127 -3 151 -6 191 -26z m173 -182 c29 -23 36 -85 36 -310 0 -251 -5 -274 -71
-337 -48 -45 -283 -143 -344 -143 -61 0 -296 98 -344 143 -62 59 -71 92 -71
274 l0 162 32 -10 c18 -5 68 -9 110 -9 99 0 165 24 243 90 123 102 165 132
207 146 51 16 180 13 202 -6z m-1056 -48 c9 -6 10 -32 5 -101 l-6 -93 -35 6
c-51 8 -82 41 -82 88 0 49 13 73 48 92 31 17 51 19 70 8z m1422 -7 c37 -19 50
-43 50 -93 0 -47 -31 -80 -82 -88 l-35 -6 -6 93 c-8 113 4 129 73 94z m-852
-775 c29 -11 76 -20 107 -20 31 0 78 9 107 20 29 11 54 20 56 20 1 0 2 -26 2
-58 0 -81 -31 -140 -90 -169 -24 -13 -58 -23 -75 -23 -17 0 -51 10 -75 23 -59
29 -90 88 -90 169 0 32 1 58 3 58 1 0 26 -9 55 -20z m-103 -146 c4 -25 22 -52
54 -84 67 -67 135 -84 225 -58 55 17 132 94 141 142 l7 36 127 0 c141 0 207
-13 314 -62 99 -46 104 -58 24 -58 l-65 0 -15 -47 c-9 -27 -36 -118 -62 -203
-26 -85 -59 -195 -75 -245 -15 -49 -45 -147 -66 -217 l-39 -128 -167 0 -168 0
0 79 c0 93 -7 116 -51 165 -64 73 -89 80 -316 84 l-203 4 0 55 c0 50 4 59 40
100 31 36 40 54 40 83 0 52 -39 90 -92 90 -36 0 -48 -7 -107 -64 l-66 -65 0
-171 0 -172 28 -24 c28 -24 28 -24 277 -24 284 0 274 3 268 -88 l-3 -47 -419
-3 -418 -2 5 247 c3 191 8 259 20 296 51 152 159 277 300 347 114 57 168 68
323 69 l132 1 7 -36z m2190 -231 c-13 -43 -65 -215 -117 -383 l-94 -305 -673
-3 c-551 -2 -672 0 -668 11 5 12 113 364 182 592 19 61 38 122 44 138 l11 27
669 0 669 0 -23 -77z m-2507 -118 c2 -13 -12 -35 -38 -60 l-40 -39 0 -102 0
-102 228 -4 229 -3 42 -28 c53 -35 71 -77 71 -162 l0 -65 -30 0 c-30 0 -30 0
-30 60 0 52 -4 64 -29 92 l-29 33 -248 3 c-157 2 -253 7 -261 14 -9 8 -13 48
-13 146 l0 136 53 54 c54 55 89 65 95 27z m2542 -670 l0 -35 -1567 2 -1568 3
-3 33 -3 32 1570 0 1571 0 0 -35z"/>
<path d="M2980 1255 l0 -95 29 0 c45 0 91 44 91 87 0 19 -5 43 -10 54 -12 22
-61 49 -90 49 -19 0 -20 -6 -20 -95z"/>
<path d="M3360 2340 l0 -90 95 0 95 0 0 90 0 90 -95 0 -95 0 0 -90z m130 0 c0
-28 -3 -30 -35 -30 -32 0 -35 2 -35 30 0 28 3 30 35 30 32 0 35 -2 35 -30z"/>
<path d="M3170 2085 l0 -95 95 0 95 0 0 95 0 95 -95 0 -95 0 0 -95z m130 0 c0
-33 -2 -35 -35 -35 -33 0 -35 2 -35 35 0 33 2 35 35 35 33 0 35 -2 35 -35z"/>
<path d="M2920 1955 l0 -95 90 0 90 0 0 95 0 95 -90 0 -90 0 0 -95z m120 0 c0
-32 -2 -35 -30 -35 -28 0 -30 3 -30 35 0 32 2 35 30 35 28 0 30 -3 30 -35z"/>
</g>
</svg>
