<?xml version="1.0" standalone="no"?>
<!DOCTYPE svg PUBLIC "-//W3C//DTD SVG 20010904//EN"
 "http://www.w3.org/TR/2001/REC-SVG-20010904/DTD/svg10.dtd">
<svg version="1.0" xmlns="http://www.w3.org/2000/svg"
 width="1000.000000pt" height="1001.000000pt" viewBox="0 0 1000.000000 1001.000000"
 preserveAspectRatio="xMidYMid meet">

<g transform="translate(0.000000,1001.000000) scale(0.100000,-0.100000)"
fill="#000000" stroke="none">
<path d="M3220 8836 c0 -62 -3 -76 -15 -76 -9 0 -33 -9 -55 -20 -23 -12 -59
-20 -86 -20 l-47 0 19 21 c10 12 43 37 72 56 43 28 52 38 52 63 0 20 -5 30
-15 30 -26 0 -93 -38 -136 -77 -40 -36 -99 -126 -99 -150 0 -10 31 -13 121
-13 106 0 124 3 146 20 37 29 119 27 164 -3 121 -80 67 -268 -78 -270 -36 -1
-60 6 -89 24 -35 22 -50 24 -151 25 -130 1 -132 -2 -85 -77 48 -74 131 -142
200 -163 20 -7 22 -4 22 27 0 31 -5 38 -42 60 -47 27 -88 63 -88 76 0 12 92
-4 125 -22 17 -9 38 -17 48 -17 15 0 17 -10 17 -76 l0 -76 57 7 c176 22 302
139 333 308 37 199 -118 398 -324 414 l-66 6 0 -77z m187 -42 c120 -69 171
-244 107 -372 -32 -64 -100 -125 -161 -146 -61 -21 -63 -21 -63 13 0 24 6 31
32 40 128 45 193 188 139 307 -23 50 -93 112 -138 120 -31 6 -33 9 -33 44 l0
38 38 -10 c20 -5 56 -21 79 -34z"/>
<path d="M3750 8629 l0 -160 156 3 c179 3 184 6 184 90 0 37 -5 51 -20 60 -23
15 -26 28 -6 28 32 0 36 90 6 120 -18 18 -33 20 -170 20 l-150 0 0 -161z m275
71 c0 -25 -1 -25 -102 -28 l-103 -3 0 31 0 31 103 -3 c101 -3 102 -3 102 -28z
m0 -130 l0 -35 -102 -3 -103 -3 0 41 0 41 103 -3 102 -3 0 -35z"/>
<path d="M4190 8630 l0 -160 165 0 165 0 0 30 0 30 -130 0 -130 0 0 40 0 40
75 0 75 0 0 30 0 30 -75 0 -75 0 0 30 0 30 125 0 125 0 0 30 0 30 -160 0 -160
0 0 -160z"/>
<path d="M4800 8630 l0 -162 138 4 c115 3 143 7 172 23 92 54 95 210 4 266
-35 21 -53 24 -176 27 l-138 4 0 -162z m269 85 c33 -16 41 -33 41 -80 0 -82
-35 -105 -161 -105 l-79 0 0 100 0 100 85 0 c56 0 96 -5 114 -15z"/>
<path d="M5270 8630 l0 -160 35 0 35 0 0 160 0 160 -35 0 -35 0 0 -160z"/>
<path d="M5483 8775 c-22 -15 -23 -23 -23 -151 l0 -134 27 -11 c17 -6 88 -9
171 -7 171 4 172 4 172 110 l0 68 -95 0 -95 0 0 -30 0 -30 60 0 60 0 0 -30 0
-30 -115 0 -115 0 0 100 0 100 115 0 c106 0 115 -2 115 -19 0 -16 5 -17 33
-12 28 6 32 11 30 36 -1 15 -7 33 -13 39 -7 7 -69 12 -158 14 -122 2 -151 0
-169 -13z"/>
<path d="M5940 8630 l0 -160 35 0 35 0 0 160 0 160 -35 0 -35 0 0 -160z"/>
<path d="M6060 8760 l0 -30 75 0 75 0 0 -130 0 -130 35 0 35 0 0 130 0 130 70
0 70 0 0 30 0 30 -180 0 -180 0 0 -30z"/>
<path d="M6456 8636 c-47 -84 -86 -156 -86 -160 0 -3 14 -6 30 -6 25 0 33 6
47 35 l17 35 106 0 106 0 17 -35 c15 -32 21 -35 58 -35 l41 0 -20 33 c-11 17
-52 89 -91 160 -70 123 -73 127 -106 127 -32 0 -35 -3 -119 -154z m180 -33
c-2 -2 -33 -3 -69 -1 l-65 3 35 63 36 64 33 -63 c19 -34 32 -64 30 -66z"/>
<path d="M6850 8630 l0 -160 155 0 155 0 0 30 0 30 -120 0 -120 0 0 130 0 130
-35 0 -35 0 0 -160z"/>
<path d="M3233 8599 c-43 -16 -51 -67 -14 -96 52 -40 119 28 79 79 -18 21 -39
27 -65 17z"/>
<path d="M2892 8548 l3 -33 120 -3 c100 -2 122 0 131 13 7 9 10 25 7 35 -5 19
-15 20 -135 20 l-129 0 3 -32z"/>
<path d="M3757 8343 c-11 -10 -8 -91 3 -98 6 -3 10 2 10 12 0 11 12 23 30 30
17 6 30 18 30 27 0 25 -56 47 -73 29z m53 -28 c0 -8 -9 -15 -20 -15 -11 0 -20
7 -20 15 0 8 9 15 20 15 11 0 20 -7 20 -15z"/>
<path d="M3885 8308 c-29 -73 -30 -75 -14 -60 16 14 69 16 69 2 0 -5 4 -10 9
-10 5 0 0 25 -12 55 -11 30 -23 55 -27 55 -4 0 -16 -19 -25 -42z m35 -8 c0
-11 -7 -20 -15 -20 -17 0 -18 2 -9 24 9 23 24 20 24 -4z"/>
<path d="M4000 8295 c0 -30 5 -55 10 -55 6 0 10 9 10 20 0 11 4 20 10 20 5 0
14 -9 20 -20 6 -11 16 -20 22 -20 6 0 5 9 -4 23 -11 16 -12 26 -5 39 14 22 -7
48 -39 48 -22 0 -24 -4 -24 -55z m53 20 c1 -5 -6 -11 -15 -13 -11 -2 -18 3
-18 13 0 17 30 18 33 0z"/>
<path d="M4120 8340 c0 -5 7 -10 15 -10 11 0 15 -12 15 -46 0 -27 4 -43 10
-39 6 3 10 24 10 46 0 28 4 39 15 39 8 0 15 5 15 10 0 6 -18 10 -40 10 -22 0
-40 -4 -40 -10z"/>
<path d="M4240 8295 c0 -30 5 -55 10 -55 6 0 10 17 10 38 l1 37 34 -40 35 -40
-2 60 c-1 42 -3 49 -5 23 -2 -21 -7 -38 -11 -38 -4 0 -18 16 -32 35 -14 19
-28 35 -32 35 -5 0 -8 -25 -8 -55z"/>
<path d="M4390 8295 c0 -54 0 -55 30 -55 17 0 30 5 30 10 0 6 -9 10 -20 10
-11 0 -20 7 -20 15 0 8 7 15 15 15 8 0 15 5 15 10 0 6 -7 10 -15 10 -8 0 -15
5 -15 10 0 6 9 10 20 10 11 0 20 5 20 10 0 6 -13 10 -30 10 -30 0 -30 -1 -30
-55z"/>
<path d="M4500 8301 c0 -28 5 -53 10 -56 6 -3 10 3 10 14 0 27 27 27 35 1 3
-11 10 -20 15 -20 5 0 5 11 -2 25 -8 19 -8 28 3 41 11 14 11 18 -6 30 -10 8
-29 14 -42 14 -21 0 -23 -4 -23 -49z m60 14 c0 -8 -9 -15 -20 -15 -11 0 -20 7
-20 15 0 8 9 15 20 15 11 0 20 -7 20 -15z"/>
<path d="M4697 8343 c-11 -10 -8 -91 3 -98 6 -4 10 15 10 49 0 57 -1 61 -13
49z"/>
<path d="M4772 8295 c1 -41 3 -48 5 -22 2 20 7 37 11 37 4 0 18 -16 32 -35 14
-19 28 -35 33 -35 4 0 7 25 7 55 0 30 -4 55 -10 55 -5 0 -10 -17 -10 -37 l0
-38 -35 40 -34 40 1 -60z"/>
<path d="M4970 8344 c0 -5 7 -19 15 -30 8 -10 15 -31 15 -46 0 -16 5 -28 10
-28 6 0 10 12 10 28 0 15 7 36 15 46 25 33 16 43 -10 11 -13 -16 -24 -25 -25
-19 0 14 -29 52 -30 38z"/>
<path d="M5107 8332 c-22 -24 -21 -55 1 -75 24 -22 45 -21 65 1 22 24 21 55
-1 75 -24 22 -45 21 -65 -1z m68 -21 c10 -31 -5 -52 -34 -49 -26 3 -38 26 -27
54 8 21 53 18 61 -5z"/>
<path d="M5240 8312 c0 -59 41 -90 74 -56 18 17 22 94 6 94 -5 0 -10 -20 -10
-45 0 -41 -2 -45 -25 -45 -23 0 -25 4 -25 45 0 25 -4 45 -10 45 -5 0 -10 -17
-10 -38z"/>
<path d="M5380 8301 c0 -28 5 -53 10 -56 6 -3 10 3 10 14 0 27 27 27 35 1 3
-11 10 -20 15 -20 5 0 5 11 -2 25 -8 19 -8 28 3 41 11 14 11 18 -6 30 -10 8
-29 14 -42 14 -21 0 -23 -4 -23 -49z m60 14 c0 -8 -9 -15 -20 -15 -11 0 -20 7
-20 15 0 8 9 15 20 15 11 0 20 -7 20 -15z"/>
<path d="M5574 8336 c-3 -8 -4 -31 -2 -52 3 -34 7 -39 30 -42 29 -3 68 27 68
53 0 40 -83 75 -96 41z m71 -25 c9 -28 -5 -51 -31 -51 -21 0 -24 5 -24 35 0
30 3 35 24 35 15 0 27 -7 31 -19z"/>
<path d="M5723 8295 c0 -33 2 -45 4 -27 2 18 2 45 0 60 -2 15 -4 0 -4 -33z"/>
<path d="M5807 8332 c-23 -25 -21 -55 3 -77 25 -23 70 -13 70 16 0 21 -26 37
-38 24 -4 -4 -1 -10 6 -12 21 -8 13 -23 -12 -23 -26 0 -40 23 -31 51 5 13 16
19 38 19 24 0 28 3 17 10 -22 14 -35 12 -53 -8z"/>
<path d="M5930 8294 c0 -34 4 -53 10 -49 6 3 10 28 10 56 0 27 -4 49 -10 49
-5 0 -10 -25 -10 -56z"/>
<path d="M5995 8340 c-3 -5 3 -10 14 -10 17 0 21 -8 24 -47 l3 -48 2 48 c2 40
5 47 22 47 11 0 20 5 20 10 0 6 -18 10 -39 10 -22 0 -43 -4 -46 -10z"/>
<path d="M6121 8298 c-12 -28 -18 -54 -15 -57 4 -3 9 0 11 7 3 6 17 12 33 12
16 0 30 -6 33 -12 2 -7 7 -10 11 -7 7 7 -33 109 -44 109 -4 0 -17 -23 -29 -52z
m42 2 c4 -15 0 -20 -13 -20 -13 0 -17 5 -13 20 3 11 9 20 13 20 4 0 10 -9 13
-20z"/>
<path d="M6252 8298 c-2 -56 -1 -58 23 -58 14 0 25 5 25 10 0 6 -9 10 -19 10
-16 0 -21 8 -24 48 -3 46 -3 46 -5 -10z"/>
<path d="M6432 8334 c-30 -20 -29 -59 3 -80 32 -21 65 -10 65 22 0 15 -6 24
-16 24 -11 0 -14 -6 -9 -21 6 -17 3 -20 -17 -17 -18 2 -23 9 -23 33 0 25 4 30
28 33 15 2 25 8 22 13 -9 13 -28 11 -53 -7z"/>
<path d="M6550 8295 c0 -30 5 -55 10 -55 6 0 10 9 10 20 0 11 4 20 10 20 5 0
14 -9 20 -20 6 -11 15 -20 21 -20 6 0 3 10 -5 21 -11 17 -12 26 -3 39 14 24
-6 50 -39 50 -22 0 -24 -4 -24 -55z m58 23 c-7 -19 -38 -22 -38 -4 0 10 9 16
21 16 12 0 19 -5 17 -12z"/>
<path d="M6692 8334 c-31 -22 -26 -63 10 -83 24 -14 28 -14 47 3 26 24 27 58
3 79 -23 21 -32 21 -60 1z m59 -20 c17 -21 0 -49 -32 -49 -24 0 -36 23 -25 51
7 19 40 18 57 -2z"/>
<path d="M6816 8328 c13 -45 34 -91 39 -86 3 2 11 22 19 44 l13 39 13 -42 c7
-24 17 -43 21 -43 5 0 15 23 24 52 18 61 17 58 6 58 -5 0 -12 -16 -15 -35 -4
-19 -11 -35 -15 -35 -5 0 -12 16 -15 35 -9 45 -20 44 -38 -2 l-14 -38 -13 38
c-13 39 -37 53 -25 15z"/>
<path d="M7000 8340 c0 -5 7 -10 15 -10 11 0 15 -12 15 -46 0 -27 4 -43 10
-39 6 3 10 24 10 46 0 28 4 39 15 39 8 0 15 5 15 10 0 6 -18 10 -40 10 -22 0
-40 -4 -40 -10z"/>
<path d="M7133 8295 c0 -33 2 -48 4 -32 4 22 9 27 34 27 24 0 29 -4 29 -26 0
-14 4 -23 10 -19 13 8 13 75 0 95 -8 12 -10 11 -10 -7 0 -19 -6 -23 -29 -23
-23 0 -31 5 -34 23 -2 12 -4 -5 -4 -38z"/>
<path d="M0 5495 l0 -1365 5000 0 5000 0 0 1365 0 1365 -5000 0 -5000 0 0
-1365z m3408 330 c75 -33 143 -102 180 -183 23 -49 27 -70 26 -147 0 -75 -4
-99 -26 -147 -55 -119 -169 -200 -301 -214 l-67 -7 0 70 0 70 -39 11 c-21 7
-44 19 -51 27 -8 10 -29 15 -59 15 l-46 -1 40 -36 c22 -19 52 -40 68 -45 23
-9 27 -15 27 -49 0 -45 -12 -49 -63 -23 -80 41 -168 137 -187 205 l-9 29 121
0 c114 0 122 -1 150 -25 35 -29 111 -34 158 -10 101 52 97 211 -7 260 -45 22
-111 16 -149 -14 -24 -19 -39 -21 -151 -21 -124 0 -124 0 -118 23 23 76 108
170 191 211 29 14 55 26 58 26 3 0 6 -18 6 -39 0 -35 -4 -41 -42 -64 -24 -14
-54 -37 -67 -51 l-24 -26 42 0 c24 0 55 7 69 15 15 8 39 19 55 25 26 9 27 12
27 81 l0 72 63 -5 c39 -3 88 -16 125 -33z m666 -111 c23 -22 22 -110 -1 -123
-12 -7 -14 -13 -7 -18 40 -28 45 -103 9 -138 -23 -24 -28 -25 -175 -25 l-150
0 0 160 0 160 154 0 c127 0 157 -3 170 -16z m446 -14 l0 -30 -125 0 -125 0 0
-30 0 -30 70 0 70 0 0 -30 0 -30 -70 0 -70 0 0 -40 0 -40 125 0 125 0 0 -30 0
-30 -165 0 -165 0 0 160 0 160 165 0 165 0 0 -30z m573 16 c94 -40 122 -166
55 -251 -35 -45 -74 -55 -218 -55 l-130 0 0 160 0 160 130 0 c88 0 141 -4 163
-14z m257 -146 l0 -160 -40 0 -40 0 0 160 0 160 40 0 40 0 0 -160z m464 144
c17 -16 22 -74 7 -74 -5 0 -23 -3 -40 -6 -27 -6 -31 -4 -31 15 0 20 -5 21
-110 21 l-110 0 0 -100 0 -100 113 0 114 0 -5 30 c-4 29 -6 30 -57 30 -51 0
-53 1 -57 30 l-5 30 99 0 98 0 0 -74 c0 -107 2 -106 -190 -106 -198 0 -190 -7
-190 162 0 163 -6 158 194 158 127 0 157 -3 170 -16z m206 -144 l0 -160 -40 0
-40 0 0 160 0 160 40 0 40 0 0 -160z m410 130 l0 -30 -75 0 -75 0 0 -130 0
-130 -40 0 -40 0 0 130 0 130 -70 0 -70 0 0 30 0 30 185 0 185 0 0 -30z m270
-122 c47 -84 87 -156 88 -160 2 -4 -16 -8 -40 -8 -41 0 -46 3 -61 35 l-17 35
-100 0 -100 0 -17 -35 c-15 -31 -21 -35 -56 -35 l-39 0 41 73 c23 39 63 111
89 159 l47 88 40 0 40 -1 85 -151z m230 22 l0 -130 115 0 115 0 0 -30 0 -30
-155 0 -155 0 0 160 0 160 40 0 40 0 0 -130z m-3634 -65 c29 -29 26 -58 -8
-87 -27 -24 -44 -23 -73 7 -32 31 -32 58 1 84 35 27 49 26 80 -4z m-141 -40
l0 -30 -132 -3 -133 -3 0 36 0 36 133 -3 132 -3 0 -30z m670 -240 c0 -23 -5
-31 -22 -33 -15 -2 -23 -10 -23 -23 0 -10 -7 -19 -15 -19 -12 0 -15 13 -15 56
l0 55 38 -3 c34 -3 37 -6 37 -33z m115 -11 c24 -56 25 -64 5 -64 -8 0 -15 5
-15 10 0 6 -9 10 -19 10 -11 0 -23 -4 -26 -10 -3 -5 -12 -10 -19 -10 -11 0 -9
13 7 55 11 30 26 55 33 55 7 0 22 -21 34 -46z m131 30 c10 -12 10 -20 2 -34
-9 -13 -8 -22 3 -39 14 -19 13 -21 -1 -21 -9 0 -25 10 -36 23 l-18 22 -1 -22
c0 -13 -4 -23 -10 -23 -5 0 -10 25 -10 55 0 54 1 55 29 55 16 0 34 -7 42 -16z
m129 6 c0 -5 -7 -10 -15 -10 -11 0 -15 -12 -15 -45 0 -33 -4 -45 -15 -45 -11
0 -15 12 -15 45 0 33 -4 45 -15 45 -8 0 -15 5 -15 10 0 6 20 10 45 10 25 0 45
-4 45 -10z m84 -21 l26 -31 0 31 c0 21 5 31 15 31 12 0 15 -13 15 -55 0 -65
-11 -69 -51 -22 l-28 32 -1 -32 c0 -18 -4 -33 -10 -33 -5 0 -10 25 -10 55 0
30 4 55 9 55 5 0 21 -14 35 -31z m176 21 c0 -5 -11 -10 -25 -10 -14 0 -25 -4
-25 -10 0 -5 9 -10 20 -10 11 0 20 -4 20 -10 0 -5 -9 -10 -20 -10 -11 0 -20
-7 -20 -15 0 -9 9 -15 25 -15 14 0 25 -4 25 -10 0 -5 -18 -10 -40 -10 l-40 0
0 55 0 55 40 0 c22 0 40 -4 40 -10z m117 -6 c3 -9 1 -24 -5 -34 -8 -13 -7 -23
4 -39 13 -19 13 -21 0 -21 -8 0 -22 10 -30 22 l-16 22 0 -22 c0 -13 -6 -22
-15 -22 -12 0 -15 13 -15 55 l0 55 35 0 c24 0 38 -5 42 -16z m143 -39 c0 -42
-3 -55 -15 -55 -12 0 -15 13 -15 55 0 42 3 55 15 55 12 0 15 -13 15 -55z m92
23 l27 -33 1 33 c0 17 5 32 10 32 6 0 10 -25 10 -55 0 -30 -4 -55 -9 -55 -5 0
-21 14 -35 31 l-26 31 0 -31 c0 -21 -5 -31 -15 -31 -12 0 -15 13 -15 55 0 65
12 70 52 23z m183 12 c3 -11 10 -20 15 -20 4 0 10 9 13 20 3 11 12 20 21 20
14 0 14 -5 -4 -40 -11 -21 -20 -46 -20 -55 0 -8 -7 -15 -16 -15 -9 0 -14 6
-11 13 3 8 -3 33 -13 55 -15 34 -16 42 -5 42 7 0 17 -9 20 -20z m187 3 c10 -9
18 -26 18 -39 0 -57 -81 -73 -109 -23 -13 24 -13 29 2 53 20 30 61 35 89 9z
m88 -29 c0 -38 3 -45 18 -42 12 2 18 15 20 46 4 55 22 55 22 -1 0 -47 -13 -67
-45 -67 -32 0 -45 20 -45 67 0 32 4 43 15 43 11 0 15 -12 15 -46z m187 30 c3
-9 1 -24 -5 -34 -8 -13 -7 -23 4 -39 13 -19 13 -21 0 -21 -8 0 -22 10 -30 22
l-16 22 0 -22 c0 -13 -6 -22 -15 -22 -12 0 -15 13 -15 55 l0 55 35 0 c24 0 38
-5 42 -16z m197 0 c9 -8 16 -26 16 -39 0 -33 -26 -55 -66 -55 l-34 0 0 55 0
55 34 0 c19 0 42 -7 50 -16z m86 -39 c0 -42 -3 -55 -15 -55 -12 0 -15 13 -15
55 0 42 3 55 15 55 12 0 15 -13 15 -55z m137 38 c3 -7 -8 -11 -29 -10 -29 2
-33 -1 -36 -24 -3 -29 23 -48 42 -29 7 7 6 10 -2 10 -7 0 -12 5 -12 10 0 6 9
10 21 10 16 0 20 -5 17 -27 -2 -23 -9 -29 -34 -31 -37 -4 -64 19 -64 53 0 34
27 57 63 53 17 -2 32 -8 34 -15z m73 -38 c0 -42 -3 -55 -15 -55 -12 0 -15 13
-15 55 0 42 3 55 15 55 12 0 15 -13 15 -55z m130 45 c0 -5 -7 -10 -15 -10 -11
0 -15 -12 -15 -45 0 -33 -4 -45 -15 -45 -11 0 -15 12 -15 45 0 33 -4 45 -15
45 -8 0 -15 5 -15 10 0 6 20 10 45 10 25 0 45 -4 45 -10z m107 -45 c22 -56 18
-65 -17 -43 -16 10 -24 10 -40 0 -35 -22 -39 -13 -17 43 13 33 28 55 37 55 9
0 24 -22 37 -55z m83 10 c0 -38 3 -45 20 -45 11 0 20 -4 20 -10 0 -5 -16 -10
-35 -10 l-35 0 0 55 c0 42 3 55 15 55 11 0 15 -12 15 -45z m228 27 c3 -9 -3
-11 -20 -7 -44 11 -65 -45 -23 -61 9 -4 19 -3 23 1 4 4 1 10 -5 12 -20 7 -15
23 7 23 16 0 20 -7 20 -31 0 -29 -2 -30 -37 -27 -28 2 -41 10 -52 29 -13 24
-13 29 3 53 14 22 24 27 48 24 17 -2 33 -9 36 -16z m123 2 c10 -12 10 -20 2
-34 -9 -13 -8 -22 3 -39 14 -19 13 -21 -1 -21 -9 0 -25 10 -36 23 l-18 22 -1
-22 c0 -13 -4 -23 -10 -23 -5 0 -10 25 -10 55 0 54 1 55 29 55 16 0 34 -7 42
-16z m141 -1 c39 -35 7 -98 -48 -91 -18 2 -34 13 -43 29 -13 24 -13 29 2 53
20 30 61 35 89 9z m85 -15 l10 -33 7 33 c4 17 14 32 21 32 7 0 19 -15 25 -32
l13 -33 6 30 c3 16 13 31 22 33 15 3 15 -1 0 -52 -16 -56 -36 -72 -47 -38 -15
45 -17 46 -27 14 -14 -45 -37 -37 -53 18 -17 56 -17 60 0 60 7 0 17 -15 23
-32z m233 22 c0 -5 -7 -10 -15 -10 -11 0 -15 -12 -15 -45 0 -33 -4 -45 -15
-45 -11 0 -15 12 -15 45 0 33 -4 45 -15 45 -8 0 -15 5 -15 10 0 6 20 10 45 10
25 0 45 -4 45 -10z m70 -10 c0 -13 7 -20 20 -20 13 0 20 7 20 20 0 11 7 20 15
20 12 0 15 -13 15 -55 0 -42 -3 -55 -15 -55 -9 0 -15 9 -15 25 0 18 -5 25 -20
25 -15 0 -20 -7 -20 -25 0 -16 -6 -25 -15 -25 -12 0 -15 13 -15 55 0 42 3 55
15 55 8 0 15 -9 15 -20z"/>
<path d="M3292 5750 c2 -27 9 -34 39 -44 94 -33 149 -110 149 -212 -1 -103
-60 -188 -150 -215 -35 -11 -40 -16 -40 -41 0 -26 2 -28 28 -22 87 20 186 111
211 194 16 52 14 128 -5 182 -28 84 -119 166 -202 183 -33 7 -33 6 -30 -25z"/>
<path d="M3830 5640 l0 -30 95 0 95 0 0 30 0 30 -95 0 -95 0 0 -30z"/>
<path d="M3830 5510 l0 -41 91 3 c75 2 94 6 103 21 8 12 8 22 0 35 -9 14 -28
18 -103 20 l-91 3 0 -41z"/>
<path d="M4880 5571 l0 -101 68 1 c37 0 83 5 102 12 61 21 80 102 36 154 -23
26 -30 28 -115 31 l-91 4 0 -101z"/>
<path d="M6541 5608 c-17 -29 -31 -56 -31 -60 0 -5 29 -8 64 -8 l64 0 -30 58
c-17 31 -32 59 -33 60 -2 2 -17 -20 -34 -50z"/>
<path d="M3780 5255 c0 -9 5 -15 11 -13 6 2 11 8 11 13 0 5 -5 11 -11 13 -6 2
-11 -4 -11 -13z"/>
<path d="M3900 5236 c0 -9 5 -16 10 -16 6 0 10 4 10 9 0 6 -4 13 -10 16 -5 3
-10 -1 -10 -9z"/>
<path d="M4020 5255 c0 -8 7 -15 15 -15 8 0 15 7 15 15 0 8 -7 15 -15 15 -8 0
-15 -7 -15 -15z"/>
<path d="M4530 5255 c0 -8 5 -15 10 -15 6 0 10 7 10 15 0 8 -4 15 -10 15 -5 0
-10 -7 -10 -15z"/>
<path d="M5123 5263 c-18 -7 -16 -38 2 -53 23 -19 47 -4 43 27 -3 27 -20 37
-45 26z"/>
<path d="M5410 5255 c0 -8 5 -15 10 -15 6 0 10 7 10 15 0 8 -4 15 -10 15 -5 0
-10 -7 -10 -15z"/>
<path d="M5600 5235 c0 -29 3 -36 18 -33 11 2 17 13 17 33 0 20 -6 31 -17 33
-15 3 -18 -4 -18 -33z"/>
<path d="M6140 5236 c0 -9 5 -16 10 -16 6 0 10 4 10 9 0 6 -4 13 -10 16 -5 3
-10 -1 -10 -9z"/>
<path d="M6570 5255 c0 -8 7 -15 15 -15 8 0 15 7 15 15 0 8 -7 15 -15 15 -8 0
-15 -7 -15 -15z"/>
<path d="M6702 5258 c-19 -19 -14 -46 9 -53 27 -9 42 6 37 36 -3 27 -27 36
-46 17z"/>
<path d="M4965 2697 l7 -83 -48 -19 c-27 -10 -58 -24 -69 -32 -21 -14 -115
-18 -115 -4 0 15 83 86 118 100 29 12 32 17 32 58 0 41 -1 44 -22 37 -106 -32
-240 -163 -263 -256 l-7 -28 142 0 c136 0 143 1 175 26 26 20 45 25 87 25 69
0 97 -11 136 -55 102 -117 27 -289 -126 -289 -46 0 -66 5 -102 29 -44 28 -49
29 -177 30 -73 0 -133 -3 -133 -7 0 -31 51 -113 108 -173 37 -39 145 -106 171
-106 6 0 11 18 11 43 0 39 -3 43 -39 60 -21 9 -55 34 -75 55 l-38 37 52 3 c37
2 57 -2 69 -12 10 -9 39 -23 65 -32 l48 -17 -7 -78 -7 -79 40 0 c259 0 462
235 423 487 -32 207 -216 363 -428 363 l-35 0 7 -83z m159 -28 c69 -25 143
-91 181 -161 28 -49 30 -61 30 -153 0 -89 -3 -105 -27 -150 -14 -27 -46 -69
-70 -92 -45 -44 -137 -93 -175 -93 -19 0 -23 5 -23 33 0 30 4 34 48 49 67 24
116 65 149 123 24 43 28 61 28 125 0 57 -6 85 -22 116 -30 56 -92 109 -152
131 -49 17 -51 19 -51 55 0 45 7 46 84 17z"/>
<path d="M4962 2403 c-33 -29 -36 -58 -10 -86 33 -36 60 -41 91 -16 33 25 36
70 7 99 -25 25 -61 26 -88 3z"/>
<path d="M4584 2386 c-3 -8 -4 -27 -2 -43 l3 -28 147 -3 147 -3 7 27 c14 53 0
59 -155 62 -116 2 -142 0 -147 -12z"/>
<path d="M2520 1365 c0 -54 0 -55 30 -55 17 0 30 5 30 10 0 6 -9 10 -20 10
-17 0 -20 7 -20 45 0 25 -4 45 -10 45 -5 0 -10 -25 -10 -55z"/>
<path d="M3720 1405 c0 -8 -7 -15 -15 -15 -23 0 -41 -46 -25 -65 7 -8 17 -15
22 -15 6 0 5 7 -2 15 -13 16 -7 45 10 45 5 0 10 -13 10 -30 0 -16 5 -30 10
-30 6 0 10 25 10 55 0 30 -4 55 -10 55 -5 0 -10 -7 -10 -15z"/>
<path d="M3890 1365 c0 -30 5 -55 10 -55 6 0 10 25 10 55 0 30 -4 55 -10 55
-5 0 -10 -25 -10 -55z"/>
<path d="M6270 1406 c0 -7 -9 -16 -21 -19 -16 -4 -20 -12 -17 -39 2 -28 7 -34
31 -36 27 -3 27 -2 27 52 0 31 -4 56 -10 56 -5 0 -10 -6 -10 -14z m0 -61 c0
-26 -14 -33 -25 -15 -9 14 1 40 15 40 5 0 10 -11 10 -25z"/>
<path d="M6750 1410 c0 -5 5 -10 10 -10 6 0 10 5 10 10 0 6 -4 10 -10 10 -5 0
-10 -4 -10 -10z"/>
<path d="M7193 1365 c0 -33 2 -45 4 -27 2 18 2 45 0 60 -2 15 -4 0 -4 -33z"/>
<path d="M7250 1410 c0 -5 5 -10 10 -10 6 0 10 5 10 10 0 6 -4 10 -10 10 -5 0
-10 -4 -10 -10z"/>
<path d="M4357 1396 c-8 -20 7 -79 21 -84 6 -2 12 1 12 7 0 6 -4 11 -10 11
-14 0 -12 38 2 42 9 3 8 9 -4 21 -12 13 -17 14 -21 3z"/>
<path d="M4837 1397 c-9 -25 8 -82 26 -85 9 -2 17 1 17 7 0 6 -4 11 -10 11
-14 0 -12 38 2 42 9 3 8 9 -4 21 -20 20 -24 21 -31 4z"/>
<path d="M5633 1391 c-13 -21 3 -81 22 -81 8 0 15 5 15 10 0 6 -4 10 -10 10
-14 0 -12 38 2 42 10 4 9 9 -3 20 -14 14 -16 14 -26 -1z"/>
<path d="M5813 1394 c-16 -16 2 -84 22 -84 8 0 15 5 15 10 0 6 -4 10 -10 10
-14 0 -12 38 2 42 10 4 9 8 -2 20 -12 12 -18 12 -27 2z"/>
<path d="M7317 1396 c-8 -20 7 -79 21 -84 6 -2 12 1 12 7 0 6 -4 11 -10 11
-14 0 -12 38 2 42 9 3 8 9 -4 21 -12 13 -17 14 -21 3z"/>
<path d="M2620 1375 c-26 -31 13 -82 44 -56 19 16 21 42 4 59 -16 16 -33 15
-48 -3z m40 -25 c0 -11 -7 -20 -15 -20 -8 0 -15 9 -15 20 0 11 7 20 15 20 8 0
15 -9 15 -20z"/>
<path d="M2720 1350 c0 -22 5 -40 10 -40 6 0 10 14 10 30 0 17 5 30 10 30 6 0
10 5 10 10 0 6 -9 10 -20 10 -17 0 -20 -7 -20 -40z"/>
<path d="M2807 1383 c-4 -3 -7 -19 -7 -35 0 -31 20 -45 48 -33 15 7 15 8 -3
13 -34 7 -42 22 -12 22 16 0 27 5 27 14 0 20 -39 34 -53 19z"/>
<path d="M2900 1349 c0 -22 5 -39 10 -39 6 0 10 14 10 30 0 17 5 30 10 30 6 0
10 -13 10 -30 0 -16 5 -30 10 -30 6 0 10 14 10 30 0 30 19 43 21 15 3 -28 4
-33 12 -42 5 -4 7 10 5 32 l-3 40 -47 1 -48 2 0 -39z"/>
<path d="M3113 1350 c0 -25 2 -35 4 -22 2 12 2 32 0 45 -2 12 -4 2 -4 -23z"/>
<path d="M3170 1336 c0 -31 5 -56 10 -56 6 0 10 6 10 14 0 7 9 16 21 19 16 4
20 12 17 39 -2 28 -7 34 -30 36 -28 3 -28 2 -28 -52z m47 10 c-4 -9 -11 -16
-17 -16 -11 0 -14 33 -3 44 11 10 26 -11 20 -28z"/>
<path d="M3277 1376 c-3 -8 4 -21 16 -30 l22 -15 -23 0 c-25 -1 -21 -21 4 -21
23 0 29 29 8 45 -18 14 -18 14 -1 15 10 0 15 5 12 10 -9 15 -32 12 -38 -4z"/>
<path d="M3374 1355 c1 -36 4 -40 29 -42 25 -2 27 1 27 38 0 21 -4 39 -10 39
-5 0 -10 -13 -10 -30 0 -42 -27 -40 -33 3 -4 26 -4 25 -3 -8z"/>
<path d="M3470 1350 c0 -22 5 -40 10 -40 6 0 10 14 10 30 0 17 5 30 10 30 6 0
10 -13 10 -30 0 -16 5 -30 10 -30 6 0 10 14 10 30 0 17 5 30 10 30 10 0 14
-21 11 -47 -1 -7 3 -13 9 -13 7 0 10 15 8 37 -3 37 -4 37 -50 40 l-48 3 0 -40z"/>
<path d="M3790 1375 c-26 -31 13 -82 44 -56 19 16 21 42 4 59 -16 16 -33 15
-48 -3z m40 -25 c0 -11 -7 -20 -15 -20 -8 0 -15 9 -15 20 0 11 7 20 15 20 8 0
15 -9 15 -20z"/>
<path d="M3960 1375 c-26 -31 13 -82 44 -56 19 16 21 42 4 59 -16 16 -33 15
-48 -3z m40 -25 c0 -11 -7 -20 -15 -20 -8 0 -15 9 -15 20 0 11 7 20 15 20 8 0
15 -9 15 -20z"/>
<path d="M4060 1350 c0 -22 5 -40 10 -40 6 0 10 14 10 30 0 17 5 30 10 30 6 0
10 5 10 10 0 6 -9 10 -20 10 -17 0 -20 -7 -20 -40z"/>
<path d="M4203 1375 c-3 -9 2 -22 13 -30 18 -13 18 -14 2 -15 -24 0 -23 -20 1
-20 28 0 33 26 8 44 -19 13 -19 15 -4 15 21 1 23 21 2 21 -9 0 -18 -7 -22 -15z"/>
<path d="M4293 1350 c0 -25 2 -35 4 -22 2 12 2 32 0 45 -2 12 -4 2 -4 -23z"/>
<path d="M4495 1380 c-3 -6 4 -10 17 -11 l23 0 -22 -11 c-35 -17 -30 -47 7
-46 26 1 30 5 30 28 0 39 -38 67 -55 40z m32 -46 c-3 -3 -12 -4 -19 -1 -8 3
-5 6 6 6 11 1 17 -2 13 -5z"/>
<path d="M4590 1348 c0 -21 5 -38 10 -38 6 0 10 14 10 30 0 17 5 30 10 30 6 0
10 -13 10 -30 0 -16 5 -30 10 -30 6 0 10 14 10 30 0 17 5 30 10 30 6 0 10 -13
10 -30 0 -16 5 -30 11 -30 6 0 9 16 7 38 l-3 37 -47 1 -48 0 0 -38z"/>
<path d="M4742 1378 c-28 -28 0 -78 35 -62 16 7 15 8 -4 11 -29 5 -30 23 -2
23 14 0 19 5 17 17 -4 22 -29 28 -46 11z m35 -14 c-3 -3 -12 -4 -19 -1 -8 3
-5 6 6 6 11 1 17 -2 13 -5z"/>
<path d="M5042 1378 c-28 -28 1 -78 35 -62 16 7 15 8 -4 11 -30 6 -32 43 -2
43 11 0 17 5 14 10 -8 14 -28 13 -43 -2z"/>
<path d="M5132 1373 c-14 -26 3 -63 28 -63 25 0 42 37 28 63 -5 9 -17 17 -28
17 -11 0 -23 -8 -28 -17z m44 -14 c10 -17 -13 -36 -27 -22 -12 12 -4 33 11 33
5 0 12 -5 16 -11z"/>
<path d="M5242 1348 c1 -37 2 -39 5 -10 6 42 33 44 33 2 0 -16 5 -30 10 -30
11 0 13 39 4 64 -3 9 -17 16 -30 16 -22 0 -24 -4 -22 -42z"/>
<path d="M5343 1375 c-3 -9 -2 -19 2 -23 4 -4 10 -1 12 6 3 6 11 12 19 12 9 0
12 5 9 10 -9 15 -35 12 -42 -5z"/>
<path d="M5437 1384 c-12 -13 -8 -51 8 -64 9 -7 22 -9 32 -5 17 7 16 8 -2 13
-34 7 -41 22 -11 22 21 0 27 4 24 18 -3 17 -38 29 -51 16z m40 -20 c-3 -3 -12
-4 -19 -1 -8 3 -5 6 6 6 11 1 17 -2 13 -5z"/>
<path d="M5542 1378 c-28 -28 1 -78 35 -62 16 7 15 8 -4 11 -15 3 -23 12 -23
24 0 13 7 19 23 19 18 0 19 2 7 10 -19 13 -24 12 -38 -2z"/>
<path d="M5710 1375 c-10 -12 -10 -21 -2 -40 12 -25 36 -33 47 -15 3 6 -3 10
-14 10 -12 0 -21 5 -21 10 0 6 11 10 25 10 27 0 32 9 13 28 -16 16 -33 15 -48
-3z m37 -11 c-3 -3 -12 -4 -19 -1 -8 3 -5 6 6 6 11 1 17 -2 13 -5z"/>
<path d="M5892 1355 c3 -35 6 -40 31 -42 25 -2 27 1 27 38 0 21 -4 39 -10 39
-5 0 -10 -13 -10 -30 0 -16 -4 -30 -10 -30 -5 0 -10 3 -11 8 -5 53 -22 69 -17
17z"/>
<path d="M5990 1350 c0 -22 5 -40 10 -40 6 0 10 14 10 30 0 21 5 30 17 30 21
0 8 13 -17 17 -17 2 -20 -3 -20 -37z"/>
<path d="M6135 1380 c-3 -6 4 -10 17 -11 l23 0 -22 -11 c-35 -17 -30 -47 7
-46 26 1 30 5 30 28 0 39 -38 67 -55 40z m32 -46 c-3 -3 -12 -4 -19 -1 -8 3
-5 6 6 6 11 1 17 -2 13 -5z"/>
<path d="M6343 1350 c0 -25 2 -35 4 -22 2 12 2 32 0 45 -2 12 -4 2 -4 -23z"/>
<path d="M6400 1336 c0 -31 5 -56 10 -56 6 0 10 6 10 14 0 7 9 16 21 19 16 4
20 12 17 39 -2 28 -7 34 -30 36 -28 3 -28 2 -28 -52z m45 19 c0 -10 -6 -20
-12 -22 -8 -3 -13 5 -13 22 0 17 5 25 13 23 6 -3 12 -13 12 -23z"/>
<path d="M6513 1350 c0 -25 2 -35 4 -22 2 12 2 32 0 45 -2 12 -4 2 -4 -23z"/>
<path d="M6573 1375 c-3 -9 2 -22 13 -30 19 -14 18 -14 0 -15 -15 0 -17 -3 -8
-12 8 -8 15 -8 27 2 15 13 14 15 -7 32 -19 15 -20 18 -5 18 9 0 17 5 17 10 0
16 -30 12 -37 -5z"/>
<path d="M6667 1383 c-11 -10 -8 -61 3 -68 6 -4 19 -4 28 0 15 6 14 8 -5 16
-28 10 -30 29 -3 36 11 3 17 9 14 14 -6 11 -28 12 -37 2z"/>
<path d="M6754 1350 c0 -22 3 -40 8 -40 4 0 8 18 8 40 0 22 -4 40 -8 40 -4 0
-8 -18 -8 -40z"/>
<path d="M6821 1348 c1 -37 2 -39 8 -14 9 41 31 46 31 7 0 -17 5 -31 11 -31 6
0 9 16 7 38 -3 32 -7 37 -30 40 -27 3 -28 2 -27 -40z"/>
<path d="M6933 1378 c-5 -7 -9 -31 -8 -53 0 -36 3 -40 25 -40 22 0 25 5 26 35
0 19 4 43 8 53 7 14 3 17 -17 17 -13 0 -29 -6 -34 -12z m27 -18 c0 -5 -4 -10
-10 -10 -5 0 -10 5 -10 10 0 6 5 10 10 10 6 0 10 -4 10 -10z m7 -56 c-3 -3
-12 -4 -19 -1 -8 3 -5 6 6 6 11 1 17 -2 13 -5z"/>
<path d="M7092 1378 c-28 -28 0 -78 35 -62 16 7 15 8 -4 11 -29 5 -30 23 -2
23 14 0 19 5 17 17 -4 22 -29 28 -46 11z m35 -14 c-3 -3 -12 -4 -19 -1 -8 3
-5 6 6 6 11 1 17 -2 13 -5z"/>
<path d="M7250 1350 c0 -22 5 -40 10 -40 6 0 10 18 10 40 0 22 -4 40 -10 40
-5 0 -10 -18 -10 -40z"/>
<path d="M5370 1343 c0 -6 -8 -13 -17 -16 -17 -4 -17 -4 0 -12 24 -10 46 10
29 27 -8 8 -12 9 -12 1z"/>
<path d="M4913 1311 c0 -11 5 -17 9 -15 11 7 10 34 -1 34 -6 0 -9 -9 -8 -19z"/>
<path d="M7390 1320 c0 -5 5 -10 10 -10 6 0 10 5 10 10 0 6 -4 10 -10 10 -5 0
-10 -4 -10 -10z"/>
<path d="M1685 1169 c3 -54 25 -77 60 -61 21 10 25 18 25 57 0 25 -4 45 -10
45 -5 0 -10 -18 -10 -40 0 -28 -5 -43 -16 -47 -21 -8 -34 13 -34 55 0 17 -4
32 -9 32 -4 0 -7 -18 -6 -41z"/>
<path d="M2050 1200 c0 -5 5 -10 10 -10 6 0 10 5 10 10 0 6 -4 10 -10 10 -5 0
-10 -4 -10 -10z"/>
<path d="M2560 1200 c0 -5 5 -10 10 -10 6 0 10 5 10 10 0 6 -4 10 -10 10 -5 0
-10 -4 -10 -10z"/>
<path d="M2710 1155 c0 -30 5 -55 10 -55 6 0 10 25 10 55 0 30 -4 55 -10 55
-5 0 -10 -25 -10 -55z"/>
<path d="M2843 1155 c0 -33 2 -45 4 -27 2 18 2 45 0 60 -2 15 -4 0 -4 -33z"/>
<path d="M3230 1155 c0 -30 5 -55 10 -55 6 0 10 9 10 19 0 12 9 21 25 25 29 7
35 50 9 60 -44 17 -54 8 -54 -49z m53 20 c1 -5 -6 -11 -15 -13 -11 -2 -18 3
-18 13 0 17 30 18 33 0z"/>
<path d="M3340 1155 c0 -30 5 -55 10 -55 6 0 10 14 10 30 0 20 5 30 15 30 10
0 15 -10 15 -30 0 -16 5 -30 11 -30 6 0 9 14 7 33 -2 22 -10 35 -25 42 -13 5
-23 15 -23 22 0 7 -4 13 -10 13 -5 0 -10 -25 -10 -55z"/>
<path d="M3740 1155 c0 -30 5 -55 10 -55 6 0 10 25 10 55 0 30 -4 55 -10 55
-5 0 -10 -25 -10 -55z"/>
<path d="M3800 1155 c0 -30 5 -55 10 -55 6 0 10 25 10 55 0 30 -4 55 -10 55
-5 0 -10 -25 -10 -55z"/>
<path d="M4330 1155 c0 -30 5 -55 10 -55 6 0 10 25 10 55 0 30 -4 55 -10 55
-5 0 -10 -25 -10 -55z"/>
<path d="M4900 1155 c0 -30 5 -55 10 -55 6 0 10 25 10 55 0 30 -4 55 -10 55
-5 0 -10 -25 -10 -55z"/>
<path d="M4960 1200 c0 -5 5 -10 10 -10 6 0 10 5 10 10 0 6 -4 10 -10 10 -5 0
-10 -4 -10 -10z"/>
<path d="M5031 1160 c-1 -48 2 -56 18 -57 26 -2 43 20 39 49 -2 15 -10 23 -23
23 -11 0 -23 9 -27 20 -3 12 -6 -3 -7 -35z m39 -20 c0 -11 -7 -20 -15 -20 -15
0 -21 21 -8 33 12 13 23 7 23 -13z"/>
<path d="M6310 1155 c0 -30 5 -55 10 -55 6 0 10 25 10 55 0 30 -4 55 -10 55
-5 0 -10 -25 -10 -55z"/>
<path d="M6480 1155 c0 -52 1 -55 25 -55 33 0 55 41 35 65 -7 9 -19 14 -27 11
-8 -3 -13 2 -13 14 0 11 -4 20 -10 20 -5 0 -10 -25 -10 -55z m50 -15 c0 -11
-7 -20 -15 -20 -8 0 -15 9 -15 20 0 11 7 20 15 20 8 0 15 -9 15 -20z"/>
<path d="M6840 1199 c0 -5 5 -7 10 -4 6 3 10 8 10 11 0 2 -4 4 -10 4 -5 0 -10
-5 -10 -11z"/>
<path d="M1817 1187 c-7 -19 6 -80 19 -84 8 -3 11 44 5 90 -2 12 -19 8 -24 -6z"/>
<path d="M2117 1187 c-7 -19 6 -80 19 -84 8 -3 11 44 5 90 -2 12 -19 8 -24 -6z"/>
<path d="M6783 1189 c-14 -17 -3 -81 15 -87 8 -2 10 5 6 27 -5 24 -3 31 10 31
11 0 16 -9 16 -30 0 -16 5 -30 10 -30 6 0 10 18 10 40 0 36 -3 40 -24 40 -13
0 -26 5 -28 11 -3 8 -8 7 -15 -2z"/>
<path d="M1950 1172 c0 -19 22 -72 30 -72 11 0 34 70 26 78 -4 3 -9 -4 -13
-16 -6 -25 -23 -30 -23 -8 0 8 -4 18 -10 21 -5 3 -10 2 -10 -3z"/>
<path d="M2050 1140 c0 -22 5 -40 10 -40 6 0 10 18 10 40 0 22 -4 40 -10 40
-5 0 -10 -18 -10 -40z"/>
<path d="M2195 1171 c-3 -7 3 -11 17 -12 l23 0 -23 -11 c-31 -15 -24 -43 11
-43 26 -1 28 2 25 35 -2 27 -8 36 -25 38 -11 2 -24 -2 -28 -7z"/>
<path d="M2302 1168 c-28 -28 0 -78 35 -62 16 7 15 8 -4 11 -29 5 -30 23 -2
23 14 0 19 5 17 17 -4 22 -29 28 -46 11z m35 -14 c-3 -3 -12 -4 -19 -1 -8 3
-5 6 6 6 11 1 17 -2 13 -5z"/>
<path d="M2461 1135 c1 -36 2 -37 8 -11 9 41 31 46 31 7 0 -17 5 -31 10 -31
12 0 13 49 2 67 -4 7 -18 11 -30 10 -19 -1 -22 -7 -21 -42z"/>
<path d="M2560 1140 c0 -22 5 -40 10 -40 6 0 10 18 10 40 0 22 -4 40 -10 40
-5 0 -10 -18 -10 -40z"/>
<path d="M2624 1168 c-4 -6 0 -16 9 -23 21 -15 22 -25 1 -25 -8 0 -12 -4 -9
-10 9 -15 35 -12 42 5 3 9 -2 22 -13 30 -18 14 -18 14 -1 15 10 0 15 5 12 10
-8 14 -32 13 -41 -2z"/>
<path d="M2901 1158 c-16 -42 14 -71 49 -48 12 8 11 10 -7 10 -12 0 -25 5 -28
10 -4 6 5 10 19 10 29 0 36 24 10 34 -26 10 -34 7 -43 -16z"/>
<path d="M3010 1165 c-26 -31 13 -82 44 -56 19 16 21 42 4 59 -16 16 -33 15
-48 -3z m40 -25 c0 -11 -7 -20 -15 -20 -8 0 -15 9 -15 20 0 11 7 20 15 20 8 0
15 -9 15 -20z"/>
<path d="M3455 1171 c-3 -7 3 -11 17 -12 15 0 18 -3 8 -6 -44 -17 -47 -52 -4
-49 22 1 25 5 22 36 -3 35 -29 53 -43 31z m32 -47 c-3 -3 -12 -4 -19 -1 -8 3
-5 6 6 6 11 1 17 -2 13 -5z"/>
<path d="M3553 1165 c-3 -9 2 -22 13 -30 18 -13 18 -14 2 -15 -10 0 -18 -4
-18 -10 0 -13 21 -13 40 0 13 9 11 13 -10 30 -21 16 -22 20 -7 20 10 0 15 5
12 10 -9 15 -25 12 -32 -5z"/>
<path d="M3640 1165 c-16 -19 1 -65 24 -65 25 0 27 17 3 25 -21 8 -21 8 6 12
30 5 33 13 15 31 -16 16 -33 15 -48 -3z m37 -11 c-3 -3 -12 -4 -19 -1 -8 3 -5
6 6 6 11 1 17 -2 13 -5z"/>
<path d="M3860 1153 c0 -38 10 -51 41 -51 22 0 25 5 24 34 -1 43 -15 57 -15
16 0 -22 -5 -32 -15 -32 -10 0 -15 10 -15 30 0 17 -4 30 -10 30 -5 0 -10 -12
-10 -27z"/>
<path d="M3973 1165 c-3 -9 2 -22 13 -30 18 -13 18 -14 2 -15 -10 0 -18 -4
-18 -10 0 -14 23 -13 38 2 10 10 8 16 -10 30 -20 15 -21 18 -5 18 10 0 15 5
12 10 -9 15 -25 12 -32 -5z"/>
<path d="M4120 1126 c0 -31 5 -56 10 -56 6 0 10 6 10 14 0 7 9 16 21 19 16 4
20 12 17 39 -2 28 -7 34 -30 36 -28 3 -28 2 -28 -52z m45 19 c0 -10 -6 -20
-12 -22 -8 -3 -13 5 -13 22 0 17 5 25 13 23 6 -3 12 -13 12 -23z"/>
<path d="M4234 1145 c1 -36 4 -40 29 -42 25 -2 27 1 27 38 0 21 -4 39 -10 39
-5 0 -10 -13 -10 -30 0 -42 -27 -40 -33 3 -4 26 -4 25 -3 -8z"/>
<path d="M4390 1173 c0 -19 25 -73 33 -70 12 4 37 77 27 77 -5 0 -13 -12 -18
-27 l-10 -28 -7 28 c-6 23 -25 39 -25 20z"/>
<path d="M4503 1140 c0 -25 2 -35 4 -22 2 12 2 32 0 45 -2 12 -4 2 -4 -23z"/>
<path d="M4560 1141 c0 -23 5 -41 10 -41 6 0 10 14 10 30 0 17 5 30 10 30 6 0
10 -13 10 -30 0 -16 5 -30 11 -30 6 0 9 16 7 38 -3 32 -7 37 -30 40 -27 3 -28
1 -28 -37z"/>
<path d="M4675 1171 c-3 -6 2 -11 12 -11 15 0 14 -2 -5 -16 -29 -20 -23 -39
12 -39 25 -1 27 2 24 34 -3 36 -29 54 -43 32z"/>
<path d="M4760 1139 c0 -22 5 -39 10 -39 6 0 10 14 10 30 0 20 5 30 15 30 8 0
15 4 15 9 0 5 -11 9 -25 9 -22 0 -25 -5 -25 -39z"/>
<path d="M4964 1140 c0 -22 4 -40 8 -40 5 0 8 18 8 40 0 22 -4 40 -9 40 -4 0
-8 -18 -7 -40z"/>
<path d="M5142 1168 c-28 -28 0 -78 35 -62 16 7 15 8 -4 11 -29 5 -30 23 -2
23 14 0 19 5 17 17 -4 22 -29 28 -46 11z m35 -14 c-3 -3 -12 -4 -19 -1 -8 3
-5 6 6 6 11 1 17 -2 13 -5z"/>
<path d="M5241 1135 c2 -31 3 -34 6 -12 3 16 11 31 19 34 21 8 17 22 -6 20
-17 -1 -20 -8 -19 -42z"/>
<path d="M5320 1165 c-26 -31 13 -82 44 -56 19 16 21 42 4 59 -16 16 -33 15
-48 -3z m40 -25 c0 -11 -7 -20 -15 -20 -8 0 -15 9 -15 20 0 11 7 20 15 20 8 0
15 -9 15 -20z"/>
<path d="M5484 1155 c-9 -36 2 -58 26 -52 14 3 20 -1 23 -17 2 -11 5 4 6 34 1
52 0 56 -24 58 -19 1 -26 -4 -31 -23z m44 -12 c-5 -25 -28 -28 -28 -4 0 12 6
21 16 21 9 0 14 -7 12 -17z"/>
<path d="M5592 1144 c3 -35 6 -39 31 -40 25 -1 27 2 27 37 0 22 -4 39 -10 39
-5 0 -10 -13 -10 -30 0 -16 -4 -30 -10 -30 -10 0 -14 13 -11 37 1 6 -3 15 -9
18 -8 5 -10 -6 -8 -31z"/>
<path d="M5695 1171 c-3 -7 3 -11 17 -12 l23 0 -23 -11 c-31 -15 -24 -43 11
-43 26 -1 28 2 25 35 -2 27 -8 36 -25 38 -11 2 -24 -2 -28 -7z"/>
<path d="M5790 1139 c0 -22 5 -39 10 -39 6 0 10 14 10 30 0 17 5 30 10 30 6 0
10 -13 10 -30 0 -16 5 -30 10 -30 6 0 10 14 10 30 0 20 5 30 15 30 11 0 14 -7
9 -24 -3 -13 -1 -27 6 -31 8 -5 10 4 8 31 l-3 39 -47 1 -48 2 0 -39z"/>
<path d="M6065 1171 c-3 -6 2 -11 12 -11 15 0 14 -2 -5 -16 -29 -20 -23 -39
12 -39 25 -1 27 2 24 34 -3 36 -29 54 -43 32z"/>
<path d="M6160 1165 c-10 -12 -10 -21 -2 -40 12 -25 36 -33 47 -15 3 6 -3 10
-14 10 -14 0 -21 6 -21 20 0 14 7 20 21 20 11 0 17 5 14 10 -9 15 -31 12 -45
-5z"/>
<path d="M6380 1165 c-26 -31 13 -82 44 -56 19 16 21 42 4 59 -16 16 -33 15
-48 -3z m40 -25 c0 -11 -7 -20 -15 -20 -8 0 -15 9 -15 20 0 11 7 20 15 20 8 0
15 -9 15 -20z"/>
<path d="M6594 1166 c-3 -8 -4 -25 -2 -38 2 -17 9 -23 28 -23 22 0 25 4 25 35
0 29 -4 36 -23 38 -13 2 -24 -3 -28 -12z m42 -17 c10 -17 -13 -36 -27 -22 -12
12 -4 33 11 33 5 0 12 -5 16 -11z"/>
<path d="M6701 1135 c2 -31 3 -34 6 -12 3 16 11 31 19 34 21 8 17 22 -6 20
-17 -1 -20 -8 -19 -42z"/>
<path d="M6894 1169 c-3 -6 -1 -16 5 -22 8 -8 11 -8 11 1 0 7 7 12 16 12 8 0
12 5 9 10 -8 13 -32 13 -41 -1z"/>
<path d="M7040 1139 c0 -22 5 -39 10 -39 6 0 10 14 10 31 0 39 23 34 31 -7 l6
-29 4 29 c6 42 29 46 29 5 0 -21 3 -30 10 -23 5 5 6 22 2 39 -8 27 -12 30 -55
31 l-47 2 0 -39z"/>
<path d="M7195 1171 c-3 -7 3 -11 17 -12 15 0 18 -3 8 -6 -44 -17 -47 -52 -4
-49 22 1 25 5 22 36 -3 35 -29 53 -43 31z m32 -47 c-3 -3 -12 -4 -19 -1 -8 3
-5 6 6 6 11 1 17 -2 13 -5z"/>
<path d="M7295 1170 c-4 -6 -8 -28 -9 -50 -3 -32 1 -41 17 -46 25 -8 55 20 40
38 -6 8 -7 21 -2 33 4 11 8 23 8 28 1 11 -47 8 -54 -3z m25 -20 c0 -5 -4 -10
-10 -10 -5 0 -10 5 -10 10 0 6 5 10 10 10 6 0 10 -4 10 -10z m7 -56 c-3 -3
-12 -4 -19 -1 -8 3 -5 6 6 6 11 1 17 -2 13 -5z"/>
<path d="M7390 1141 c0 -23 5 -41 10 -41 6 0 10 14 10 30 0 17 5 30 10 30 6 0
10 -13 10 -30 0 -16 5 -30 11 -30 6 0 9 16 7 38 -3 32 -7 37 -30 40 -27 3 -28
1 -28 -37z"/>
<path d="M7500 1170 c-12 -8 -10 -10 10 -11 l25 0 -23 -11 c-31 -15 -24 -43
11 -43 21 -1 27 4 27 21 0 49 -18 65 -50 44z"/>
<path d="M7662 1168 c-23 -23 -7 -68 25 -68 7 0 18 11 25 25 18 40 -20 73 -50
43z m38 -28 c0 -11 -7 -20 -15 -20 -8 0 -15 9 -15 20 0 11 7 20 15 20 8 0 15
-9 15 -20z"/>
<path d="M7760 1139 c0 -21 5 -39 10 -39 6 0 10 14 10 30 0 17 5 30 10 30 19
0 10 16 -10 17 -17 2 -20 -4 -20 -38z"/>
<path d="M7840 1141 c0 -23 5 -41 10 -41 6 0 10 14 10 30 0 17 5 30 10 30 6 0
10 -13 10 -30 0 -16 5 -30 11 -30 6 0 9 16 7 38 -3 32 -7 37 -30 40 -27 3 -28
1 -28 -37z"/>
<path d="M7955 1171 c-3 -6 2 -11 12 -11 15 0 14 -2 -5 -16 -29 -20 -23 -39
12 -39 25 -1 27 2 24 34 -3 36 -29 54 -43 32z"/>
<path d="M8040 1139 c0 -22 5 -39 10 -39 6 0 10 14 10 30 0 20 5 30 15 30 8 0
15 4 15 9 0 5 -11 9 -25 9 -22 0 -25 -5 -25 -39z"/>
<path d="M8132 1168 c-28 -28 0 -78 35 -62 16 7 15 8 -4 11 -29 5 -30 23 -2
23 14 0 19 5 17 17 -4 22 -29 28 -46 11z m35 -14 c-3 -3 -12 -4 -19 -1 -8 3
-5 6 6 6 11 1 17 -2 13 -5z"/>
<path d="M6925 1130 c3 -6 -4 -10 -16 -10 -17 0 -20 -3 -12 -11 7 -7 19 -9 27
-6 18 7 22 37 5 37 -5 0 -7 -4 -4 -10z"/>
<path d="M5941 1104 c0 -11 3 -14 6 -6 3 7 2 16 -1 19 -3 4 -6 -2 -5 -13z"/>
<path d="M8220 1110 c0 -5 5 -10 10 -10 6 0 10 5 10 10 0 6 -4 10 -10 10 -5 0
-10 -4 -10 -10z"/>
<path d="M2030 945 c0 -30 5 -55 10 -55 6 0 10 8 10 19 0 10 9 21 20 24 45 12
31 67 -16 67 -22 0 -24 -4 -24 -55z m50 20 c0 -8 -7 -15 -15 -15 -8 0 -15 7
-15 15 0 8 7 15 15 15 8 0 15 -7 15 -15z"/>
<path d="M2140 945 c0 -30 5 -55 10 -55 6 0 10 14 10 30 0 42 27 40 33 -2 4
-27 4 -25 3 7 -1 32 -5 40 -18 39 -11 -1 -18 5 -18 17 0 11 -4 19 -10 19 -5 0
-10 -25 -10 -55z"/>
<path d="M2543 945 c0 -33 2 -45 4 -27 2 18 2 45 0 60 -2 15 -4 0 -4 -33z"/>
<path d="M2600 945 c0 -30 5 -55 10 -55 6 0 10 25 10 55 0 30 -4 55 -10 55 -5
0 -10 -25 -10 -55z"/>
<path d="M4300 990 c0 -5 5 -10 10 -10 6 0 10 5 10 10 0 6 -4 10 -10 10 -5 0
-10 -4 -10 -10z"/>
<path d="M4673 945 c0 -33 2 -45 4 -27 2 18 2 45 0 60 -2 15 -4 0 -4 -33z"/>
<path d="M4730 990 c0 -5 5 -10 10 -10 6 0 10 5 10 10 0 6 -4 10 -10 10 -5 0
-10 -4 -10 -10z"/>
<path d="M5100 945 c0 -30 5 -55 10 -55 6 0 10 25 10 55 0 30 -4 55 -10 55 -5
0 -10 -25 -10 -55z"/>
<path d="M6160 986 c0 -7 -9 -16 -21 -19 -16 -4 -20 -12 -17 -39 2 -28 7 -34
31 -36 27 -3 27 -2 27 52 0 31 -4 56 -10 56 -5 0 -10 -6 -10 -14z m0 -61 c0
-26 -14 -33 -25 -15 -9 14 1 40 15 40 5 0 10 -11 10 -25z"/>
<path d="M6225 990 c3 -5 8 -10 11 -10 2 0 4 5 4 10 0 6 -5 10 -11 10 -5 0 -7
-4 -4 -10z"/>
<path d="M7670 990 c0 -5 5 -10 10 -10 6 0 10 5 10 10 0 6 -4 10 -10 10 -5 0
-10 -4 -10 -10z"/>
<path d="M3073 975 c-16 -17 -1 -79 20 -83 9 -2 17 1 17 7 0 6 -4 11 -10 11
-14 0 -12 38 2 42 10 4 9 8 -2 20 -12 12 -18 12 -27 3z"/>
<path d="M3557 977 c-7 -19 6 -80 19 -84 8 -3 11 44 5 90 -2 12 -19 8 -24 -6z"/>
<path d="M5623 974 c-16 -16 2 -84 22 -84 8 0 15 5 15 10 0 6 -4 10 -10 10
-14 0 -12 38 2 42 10 4 9 8 -2 20 -12 12 -18 12 -27 2z"/>
<path d="M7143 974 c-16 -16 2 -84 22 -84 8 0 15 5 15 10 0 6 -4 10 -10 10
-14 0 -12 38 2 42 10 4 9 8 -2 20 -12 12 -18 12 -27 2z"/>
<path d="M2255 961 c-3 -7 3 -11 17 -11 22 -1 22 -1 -4 -16 -33 -17 -27 -45 8
-42 22 2 25 7 22 38 -3 35 -29 53 -43 31z m32 -47 c-3 -3 -12 -4 -19 -1 -8 3
-5 6 6 6 11 1 17 -2 13 -5z"/>
<path d="M2352 958 c-10 -10 -8 -16 10 -30 l23 -18 -23 0 c-13 0 -20 -4 -17
-10 9 -15 35 -12 42 5 3 9 -2 22 -13 30 -18 14 -18 14 -1 15 10 0 15 5 12 10
-8 13 -18 13 -33 -2z"/>
<path d="M2442 958 c-28 -28 0 -78 35 -62 16 7 15 8 -4 11 -29 5 -30 23 -2 23
14 0 19 5 17 17 -4 22 -29 28 -46 11z m35 -14 c-3 -3 -12 -4 -19 -1 -8 3 -5 6
6 6 11 1 17 -2 13 -5z"/>
<path d="M2662 933 c3 -34 6 -38 31 -39 25 -1 27 1 26 40 -1 37 -2 38 -8 12
-9 -41 -31 -46 -31 -7 0 17 -5 31 -11 31 -6 0 -9 -16 -7 -37z"/>
<path d="M2777 963 c-11 -10 -8 -33 4 -33 5 0 7 5 4 10 -3 6 1 10 9 10 9 0 16
5 16 10 0 11 -23 14 -33 3z"/>
<path d="M2922 958 c-10 -10 -8 -16 10 -30 l23 -18 -23 0 c-13 0 -20 -4 -17
-10 9 -15 35 -12 42 5 3 9 -2 22 -13 30 -18 13 -18 14 -1 15 9 0 17 5 17 10 0
14 -23 13 -38 -2z"/>
<path d="M3013 930 c0 -25 2 -35 4 -22 2 12 2 32 0 45 -2 12 -4 2 -4 -23z"/>
<path d="M3215 961 c-3 -7 3 -11 17 -11 22 -1 22 -1 -4 -16 -33 -17 -27 -45 8
-42 22 2 25 7 22 38 -3 35 -29 53 -43 31z m32 -47 c-3 -3 -12 -4 -19 -1 -8 3
-5 6 6 6 11 1 17 -2 13 -5z"/>
<path d="M3311 926 c1 -37 2 -38 8 -12 9 43 31 45 32 4 l1 -33 9 33 c12 40 29
42 29 2 0 -16 5 -30 10 -30 14 0 12 57 -2 67 -7 4 -30 8 -50 9 l-38 0 1 -40z"/>
<path d="M3463 963 c-18 -7 -16 -48 2 -63 9 -7 22 -9 32 -4 16 7 15 8 -4 11
-29 5 -30 23 -2 23 14 0 19 5 17 17 -3 18 -24 26 -45 16z m34 -19 c-3 -3 -12
-4 -19 -1 -8 3 -5 6 6 6 11 1 17 -2 13 -5z"/>
<path d="M3690 929 c0 -22 5 -39 10 -39 6 0 10 14 10 31 0 39 23 34 31 -7 l6
-29 4 29 c6 41 29 46 29 6 0 -18 4 -29 10 -25 10 6 6 52 -5 64 -4 3 -26 6 -51
7 l-44 2 0 -39z"/>
<path d="M3845 961 c-3 -7 3 -11 17 -12 15 0 18 -3 8 -6 -44 -17 -47 -54 -4
-51 22 2 25 7 22 38 -3 35 -29 53 -43 31z m32 -47 c-3 -3 -12 -4 -19 -1 -8 3
-5 6 6 6 11 1 17 -2 13 -5z"/>
<path d="M3944 959 c-4 -7 -7 -30 -8 -53 -1 -34 2 -41 20 -44 26 -4 54 26 35
37 -9 6 -9 15 -1 35 5 15 10 29 10 32 0 9 -49 3 -56 -7z m26 -19 c0 -5 -4 -10
-10 -10 -5 0 -10 5 -10 10 0 6 5 10 10 10 6 0 10 -4 10 -10z m7 -56 c-3 -3
-12 -4 -19 -1 -8 3 -5 6 6 6 11 1 17 -2 13 -5z"/>
<path d="M4040 931 c0 -23 5 -41 10 -41 6 0 10 14 10 30 0 17 5 30 10 30 6 0
10 -13 10 -30 0 -16 5 -30 11 -30 6 0 9 16 7 38 -3 32 -7 37 -30 40 -27 3 -28
1 -28 -37z"/>
<path d="M4145 960 c-3 -6 4 -10 17 -11 l23 0 -23 -11 c-31 -15 -24 -43 11
-43 21 -1 27 4 27 21 0 12 -3 29 -6 38 -7 18 -39 22 -49 6z"/>
<path d="M4313 930 c0 -25 2 -35 4 -22 2 12 2 32 0 45 -2 12 -4 2 -4 -23z"/>
<path d="M4375 961 c-3 -6 2 -11 12 -11 15 0 14 -2 -5 -16 -29 -20 -23 -39 12
-39 25 -1 27 2 24 34 -3 36 -29 54 -43 32z"/>
<path d="M4472 958 c-28 -28 1 -78 35 -62 16 7 15 8 -4 11 -30 6 -32 43 -2 43
11 0 17 5 14 10 -8 14 -28 13 -43 -2z"/>
<path d="M4562 933 c3 -34 6 -38 31 -38 25 -1 27 2 27 37 0 21 -4 38 -10 38
-5 0 -10 -13 -10 -30 0 -16 -4 -30 -10 -30 -10 0 -14 21 -11 48 1 6 -3 12 -9
12 -7 0 -10 -15 -8 -37z"/>
<path d="M4730 930 c0 -22 5 -40 10 -40 6 0 10 18 10 40 0 22 -4 40 -10 40 -5
0 -10 -18 -10 -40z"/>
<path d="M4794 959 c-3 -6 -1 -16 5 -22 8 -8 11 -8 11 1 0 7 7 12 16 12 8 0
12 5 9 10 -8 13 -32 13 -41 -1z"/>
<path d="M5013 963 c-18 -7 -16 -48 2 -63 9 -7 22 -9 32 -4 16 7 15 8 -4 11
-29 5 -30 23 -2 23 14 0 19 5 17 17 -3 18 -24 26 -45 16z m34 -19 c-3 -3 -12
-4 -19 -1 -8 3 -5 6 6 6 11 1 17 -2 13 -5z"/>
<path d="M5172 958 c-28 -28 0 -78 35 -62 16 7 15 8 -4 11 -29 5 -30 23 -2 23
14 0 19 5 17 17 -4 22 -29 28 -46 11z m35 -14 c-3 -3 -12 -4 -19 -1 -8 3 -5 6
6 6 11 1 17 -2 13 -5z"/>
<path d="M5271 925 c1 -36 2 -37 8 -11 9 42 31 46 31 6 0 -18 4 -29 10 -25 6
4 8 10 5 15 -7 11 5 40 16 40 5 0 9 -13 9 -30 0 -16 5 -30 10 -30 12 0 13 50
2 66 -4 6 -26 11 -49 10 l-43 0 1 -41z"/>
<path d="M5423 963 c-18 -7 -16 -48 2 -63 9 -7 22 -9 32 -4 16 7 15 8 -4 11
-28 5 -30 23 -3 23 24 0 27 25 4 34 -9 3 -16 6 -17 5 -1 0 -8 -3 -14 -6z m34
-19 c-3 -3 -12 -4 -19 -1 -8 3 -5 6 6 6 11 1 17 -2 13 -5z"/>
<path d="M5510 929 c0 -21 5 -39 10 -39 6 0 10 14 10 30 0 20 5 30 15 30 10 0
15 -10 15 -30 0 -16 5 -30 10 -30 14 0 12 56 -2 67 -7 5 -23 10 -35 11 -20 1
-23 -4 -23 -39z"/>
<path d="M5702 933 c3 -34 6 -38 31 -38 25 -1 27 2 27 37 0 21 -4 38 -10 38
-5 0 -10 -13 -10 -30 0 -35 -19 -41 -21 -7 -1 12 -1 25 0 30 0 4 -4 7 -10 7
-6 0 -9 -16 -7 -37z"/>
<path d="M5800 929 c0 -22 5 -39 10 -39 6 0 10 14 10 31 0 39 23 34 31 -7 l6
-29 4 29 c6 42 29 46 29 5 0 -21 3 -30 10 -23 5 5 6 22 2 39 -8 27 -12 30 -55
31 l-47 2 0 -39z"/>
<path d="M6014 956 c-11 -29 1 -61 23 -64 29 -4 48 30 33 58 -12 23 -48 27
-56 6z m42 -17 c10 -17 -13 -36 -27 -22 -12 12 -4 33 11 33 5 0 12 -5 16 -11z"/>
<path d="M6227 963 c-8 -18 -7 -73 3 -73 5 0 10 18 10 40 0 38 -4 49 -13 33z"/>
<path d="M6294 956 c-3 -8 -4 -25 -2 -38 2 -17 9 -23 28 -23 22 0 25 4 25 35
0 29 -4 36 -23 38 -13 2 -24 -3 -28 -12z m42 -17 c10 -17 -13 -36 -27 -22 -12
12 -4 33 11 33 5 0 12 -5 16 -11z"/>
<path d="M6463 930 c0 -25 2 -35 4 -22 2 12 2 32 0 45 -2 12 -4 2 -4 -23z"/>
<path d="M6520 931 c0 -23 5 -41 10 -41 6 0 10 14 10 30 0 17 5 30 10 30 6 0
10 -13 10 -30 0 -16 5 -30 11 -30 6 0 9 16 7 38 -3 32 -7 37 -30 40 -27 3 -28
1 -28 -37z"/>
<path d="M6750 955 c-10 -12 -10 -21 -2 -40 12 -25 36 -33 47 -15 3 6 -3 10
-14 10 -12 0 -21 5 -21 10 0 6 11 10 25 10 27 0 32 9 13 28 -16 16 -33 15 -48
-3z m37 -11 c-3 -3 -12 -4 -19 -1 -8 3 -5 6 6 6 11 1 17 -2 13 -5z"/>
<path d="M6854 959 c-4 -7 -7 -30 -8 -53 -1 -34 2 -41 20 -44 26 -4 50 23 36
41 -5 7 -6 21 -1 32 4 11 8 23 8 28 1 12 -47 8 -55 -4z m26 -19 c0 -5 -4 -10
-10 -10 -5 0 -10 5 -10 10 0 6 5 10 10 10 6 0 10 -4 10 -10z m7 -56 c-3 -3
-12 -4 -19 -1 -8 3 -5 6 6 6 11 1 17 -2 13 -5z"/>
<path d="M6950 955 c-16 -19 1 -65 24 -65 25 0 27 17 3 25 -21 8 -21 8 6 12
30 5 33 13 15 31 -16 16 -33 15 -48 -3z m37 -11 c-3 -3 -12 -4 -19 -1 -8 3 -5
6 6 6 11 1 17 -2 13 -5z"/>
<path d="M7053 954 c-4 -10 1 -20 13 -27 18 -10 17 -11 -6 -18 -22 -5 -23 -7
-7 -14 10 -4 24 -2 33 6 14 11 13 15 -8 31 -19 15 -20 18 -5 18 9 0 17 5 17
10 0 16 -30 11 -37 -6z"/>
<path d="M7225 961 c-3 -7 3 -11 17 -12 15 0 18 -3 8 -6 -44 -17 -47 -54 -4
-51 22 2 25 7 22 38 -3 35 -29 53 -43 31z m32 -47 c-3 -3 -12 -4 -19 -1 -8 3
-5 6 6 6 11 1 17 -2 13 -5z"/>
<path d="M7322 958 c-10 -10 -8 -16 10 -30 l23 -18 -23 0 c-13 0 -20 -4 -17
-10 9 -15 35 -12 42 5 3 9 -2 22 -13 30 -18 13 -18 14 -1 15 9 0 17 5 17 10 0
14 -23 13 -38 -2z"/>
<path d="M7470 955 c-10 -12 -10 -21 -2 -40 12 -25 36 -33 47 -15 3 6 -3 10
-14 10 -12 0 -21 5 -21 10 0 6 11 10 25 10 27 0 32 9 13 28 -16 16 -33 15 -48
-3z m37 -11 c-3 -3 -12 -4 -19 -1 -8 3 -5 6 6 6 11 1 17 -2 13 -5z"/>
<path d="M7571 926 c1 -37 2 -38 8 -12 9 41 31 46 31 7 0 -17 5 -31 11 -31 6
0 9 16 7 38 -3 33 -6 37 -30 38 -26 1 -28 -1 -27 -40z"/>
<path d="M7670 943 c0 -16 5 -35 10 -43 7 -11 10 -4 10 28 0 23 -4 42 -10 42
-5 0 -10 -12 -10 -27z"/>
<path d="M7741 925 c1 -36 2 -37 8 -11 9 41 31 46 31 7 0 -17 5 -31 10 -31 6
0 9 3 9 8 -1 4 -1 17 0 30 2 33 21 27 21 -8 0 -16 5 -30 10 -30 12 0 13 50 2
66 -4 6 -26 11 -49 10 l-43 0 1 -41z"/>
<path d="M2800 921 c0 -6 -7 -11 -15 -11 -8 0 -15 -4 -15 -10 0 -15 26 -12 39
4 8 10 9 16 1 21 -5 3 -10 1 -10 -4z"/>
<path d="M4820 923 c0 -6 -8 -13 -17 -16 -17 -4 -17 -4 0 -12 24 -10 46 10 29
27 -8 8 -12 9 -12 1z"/>
<path d="M4883 891 c0 -11 5 -17 9 -15 11 7 10 34 -1 34 -6 0 -9 -9 -8 -19z"/>
<path d="M6632 890 c0 -14 2 -19 5 -12 2 6 2 18 0 25 -3 6 -5 1 -5 -13z"/>
<path d="M7880 900 c0 -5 5 -10 10 -10 6 0 10 5 10 10 0 6 -4 10 -10 10 -5 0
-10 -4 -10 -10z"/>
</g>
</svg>
